{
 "cells": [
  {
   "cell_type": "code",
   "execution_count": 1,
   "id": "aa70447c",
   "metadata": {},
   "outputs": [],
   "source": [
    "import cv2\n",
    "import numpy as np\n",
    "from scipy.signal import convolve2d\n",
    "from tqdm import tqdm"
   ]
  },
  {
   "cell_type": "code",
   "execution_count": 2,
   "id": "440d0ea6",
   "metadata": {},
   "outputs": [],
   "source": [
    "#Configuration\n",
    "\n",
    "K = 5 #Number of mixture models\n",
    "T = 0.2 #Min portion of data accounted for Background\n",
    "alpha=0.5 #pi update param\n",
    "eps = 1e-5\n",
    "low_prior_weight = 0.01\n",
    "inf = 1e9\n",
    "high_variance=1\n",
    "in_video_file_path = 'Data/umcp.mpg' #path to input audio\n",
    "out_path = '' #directory for foreground and background videos\n",
    "frame_size = (240,352)"
   ]
  },
  {
   "cell_type": "code",
   "execution_count": 3,
   "id": "e5465f41",
   "metadata": {},
   "outputs": [],
   "source": [
    "#model params\n",
    "\n",
    "#For each pixel, K set of mean,var and pi are required; \n",
    "pi = np.ones((*frame_size,K))/K # pi-> (MxNxK)\n",
    "mean = np.zeros((*frame_size,K))\n",
    "var = np.ones((*frame_size,K))/K/K #Covariance matrix\n",
    "\n",
    "params = {\n",
    "    'pi':pi,\n",
    "    'mean':mean,\n",
    "    'var':var,\n",
    "    'sorted_gaussians_idx': None,\n",
    "    'B' : None\n",
    "}"
   ]
  },
  {
   "cell_type": "code",
   "execution_count": 7,
   "id": "0582c1e9",
   "metadata": {},
   "outputs": [],
   "source": [
    "# utils\n",
    "\n",
    "def KNN(x):\n",
    "    win_size = 9\n",
    "    win = np.ones((win_size,win_size))/(win_size*win_size)\n",
    "    out = convolve2d(x.squeeze(),win,mode='same')\n",
    "    out = (out>0.5)*1\n",
    "    return out[:,:,np.newaxis]\n",
    "\n",
    "def gpdf_gray(x,params):\n",
    "    #gaussian probability density function\n",
    "    mean = params['mean']\n",
    "    var = params['var']\n",
    "    \n",
    "    mahalD = (x-mean)*(x-mean)/(var+eps)\n",
    "    return 1/(np.sqrt(2*np.pi*(var+eps))) * np.exp(-mahalD/2)\n",
    "\n",
    "def update_params(x,params,M,alpha=alpha):\n",
    "    #M is a bool matrix(true and false)\n",
    "    rho = alpha*gpdf_gray(x,params)\n",
    "    for r in range(M.shape[0]):\n",
    "        for c in range(M.shape[1]):\n",
    "            no_match = True\n",
    "            for k in range(M.shape[2]):\n",
    "                if M[r][c][k]:\n",
    "                    no_match = False\n",
    "                    break\n",
    "            if no_match:\n",
    "                # replace the least probable distribution\n",
    "                min_dist_idx = np.argmin(params['pi'][r][c])\n",
    "                params['pi'][r][c][min_dist_idx] = low_prior_weight\n",
    "                params['mean'][r][c][min_dist_idx] = x[r][c]\n",
    "                params['var'][r][c][min_dist_idx] = high_variance\n",
    "            else:\n",
    "                for k in range(M.shape[2]):\n",
    "                    params['pi'][r][c][k] = (1-alpha)*params['pi'][r][c][k] + alpha*M[r][c][k]\n",
    "                    \n",
    "                    if M[r][c][k] == True:\n",
    "                        params['mean'][r][c][k] = (1-rho[r][c][k])*params['mean'][r][c][k] + \\\n",
    "                                                  rho[r][c][k]*x[r][c]\n",
    "\n",
    "                        params['var'][r][c][k] = ((1-rho[r][c][k])*params['var'][r][c][k] \\\n",
    "                                              + rho[r][c][k]*((x[r][c]-params['mean'][r][c][k])**2))\n",
    "                \n",
    "                \n",
    "            if params['var'][r][c][k] < 0:\n",
    "                params['var'][r][c][k] *= (-1)\n",
    "            # renormalise\n",
    "    params['pi'] = params['pi']/np.sum(params['pi'],axis=2)[:,:,np.newaxis]\n",
    "                    \n",
    "            \n",
    "\n",
    "def matching(x,params):\n",
    "    #if x-mean < 2.5*var then its a match\n",
    "    mean = params['mean']\n",
    "    var = params['var']\n",
    "    return np.abs(x-mean) < 2.5*var\n",
    "\n",
    "def background_model(x,params):\n",
    "    pi_by_var = -1*params['pi']/np.sqrt(params['var'] + eps)\n",
    "    params['sorted_gaussians_idx'] = np.argsort(pi_by_var,axis=2)\n",
    "    pi_sorted = -1*np.sort(-1*params['pi'],axis=2)\n",
    "    M = frame_size[0]\n",
    "    N = frame_size[1]\n",
    "    params['B'] = np.zeros_like(x)\n",
    "    for r in range(M):\n",
    "        for c in range(N):\n",
    "            cumsum = 0\n",
    "            for k in range(K):\n",
    "                cumsum += pi_sorted[r][c][k]\n",
    "                params['B'][r][c] = k+1\n",
    "                if cumsum > T:\n",
    "                    break\n",
    "                \n",
    "            \n",
    "\n",
    "    matched = matching(x,params)\n",
    "    background = np.zeros_like(x)\n",
    "    for r in range(M):\n",
    "        for c in range(N):\n",
    "            for k in range(params['B'][r][c][0]):\n",
    "                if matched[r][c][params['sorted_gaussians_idx'][r][c][k]]:\n",
    "                    # classify as background\n",
    "                    background[r][c] = 1\n",
    "                    break\n",
    "    \n",
    "    background = KNN(background)\n",
    "    return background\n",
    "                    "
   ]
  },
  {
   "cell_type": "code",
   "execution_count": 5,
   "id": "5c7798f6",
   "metadata": {
    "scrolled": false
   },
   "outputs": [],
   "source": [
    "#MAIN\n",
    "\n",
    "def main(outFolder):\n",
    "    os.mkdir(f'{outFolder}/background')\n",
    "    os.mkdir(f'{outFolder}/foreground')\n",
    "    in_video = cv2.VideoCapture(in_video_file_path)\n",
    "    idx=0\n",
    "    with tqdm(total=1000) as pbar:\n",
    "        while (in_video.isOpened()):\n",
    "            rval, frame = in_video.read()\n",
    "            idx +=1 \n",
    "            if rval:\n",
    "                #process frame\n",
    "                frame_gray = cv2.cvtColor(frame, cv2.COLOR_BGR2HSV)[:,:,2] #Take out I from HSI channel\n",
    "                frame_gray = frame_gray[:,:,np.newaxis] #Append new axis for shape matching\n",
    "                M = matching(frame_gray,params) #See if pixels match the model\n",
    "                update_params(frame_gray,params,M) #update the parameters of the model based on matched value\n",
    "                fg = 1 - background_model(frame_gray,params) #Get foreground mask by subtracting the background mask \n",
    "\n",
    "                #Back conversion into of I values to HSI\n",
    "                frame_fg_gray = (fg.astype('uint8')*frame_gray).squeeze()\n",
    "                frame_hsv = cv2.cvtColor(frame, cv2.COLOR_BGR2HSV)\n",
    "                frame_fg_hsv =np.concatenate((frame_hsv[:,:,:2],frame_fg_gray[:,:,np.newaxis]),axis=2)\n",
    "\n",
    "                #Back Conversion to color\n",
    "                frame_fg_color = cv2.cvtColor(frame_fg_hsv,cv2.COLOR_HSV2BGR)\n",
    "                frame_bg_color = frame - frame_fg_color\n",
    "\n",
    "                #writing images\n",
    "                cv2.imwrite(f'{outFolder}/background/background_{idx:03d}.png',frame_bg_color)\n",
    "                cv2.imwrite(f'{outFolder}/foreground/foreground_{idx:03d}.png',frame_fg_color)\n",
    "\n",
    "            else:\n",
    "                break\n",
    "            pbar.update(1)\n",
    "    !ffmpeg -framerate 30 -i $outFolder/background/background_%03d.png -c:v libx264 -profile:v high -crf 20 -pix_fmt yuv420p $outFolder/background.mp4\n",
    "    !ffmpeg -framerate 30 -i $outFolder/foreground/foreground_%03d.png -c:v libx264 -profile:v high -crf 20 -pix_fmt yuv420p $outFolder/foreground.mp4\n",
    "            \n",
    "    shutil.rmtree(f'{outFolder}/background')\n",
    "    shutil.rmtree(f'{outFolder}/foreground')\n",
    "    in_video.release()"
   ]
  },
  {
   "cell_type": "code",
   "execution_count": 6,
   "id": "25140da8",
   "metadata": {},
   "outputs": [
    {
     "name": "stderr",
     "output_type": "stream",
     "text": [
      "  0%|                                                                                                        | 1/1000 [00:02<35:33,  2.14s/it]/tmp/ipykernel_55814/3645168339.py:60: RuntimeWarning: invalid value encountered in sqrt\n",
      "  pi_by_var = -1*params['pi']/np.sqrt(params['var'] + eps)\n",
      "  0%|▏                                                                                                       | 2/1000 [00:05<47:25,  2.85s/it]/tmp/ipykernel_55814/3645168339.py:16: RuntimeWarning: invalid value encountered in sqrt\n",
      "  return 1/(np.sqrt(2*np.pi*(var+eps))) * np.exp(-mahalD/2)\n",
      "  0%|▎                                                                                                       | 3/1000 [00:08<47:38,  2.87s/it]/tmp/ipykernel_55814/3645168339.py:16: RuntimeWarning: overflow encountered in exp\n",
      "  return 1/(np.sqrt(2*np.pi*(var+eps))) * np.exp(-mahalD/2)\n",
      "100%|███████████████████████████████████████████████████████████████████████████████████████████████████▉| 999/1000 [1:08:05<00:04,  4.09s/it]"
     ]
    },
    {
     "name": "stdout",
     "output_type": "stream",
     "text": [
      "ffmpeg version 4.2.7-0ubuntu0.1 Copyright (c) 2000-2022 the FFmpeg developers\n",
      "  built with gcc 9 (Ubuntu 9.4.0-1ubuntu1~20.04.1)\n",
      "  configuration: --prefix=/usr --extra-version=0ubuntu0.1 --toolchain=hardened --libdir=/usr/lib/x86_64-linux-gnu --incdir=/usr/include/x86_64-linux-gnu --arch=amd64 --enable-gpl --disable-stripping --enable-avresample --disable-filter=resample --enable-avisynth --enable-gnutls --enable-ladspa --enable-libaom --enable-libass --enable-libbluray --enable-libbs2b --enable-libcaca --enable-libcdio --enable-libcodec2 --enable-libflite --enable-libfontconfig --enable-libfreetype --enable-libfribidi --enable-libgme --enable-libgsm --enable-libjack --enable-libmp3lame --enable-libmysofa --enable-libopenjpeg --enable-libopenmpt --enable-libopus --enable-libpulse --enable-librsvg --enable-librubberband --enable-libshine --enable-libsnappy --enable-libsoxr --enable-libspeex --enable-libssh --enable-libtheora --enable-libtwolame --enable-libvidstab --enable-libvorbis --enable-libvpx --enable-libwavpack --enable-libwebp --enable-libx265 --enable-libxml2 --enable-libxvid --enable-libzmq --enable-libzvbi --enable-lv2 --enable-omx --enable-openal --enable-opencl --enable-opengl --enable-sdl2 --enable-libdc1394 --enable-libdrm --enable-libiec61883 --enable-nvenc --enable-chromaprint --enable-frei0r --enable-libx264 --enable-shared\n",
      "  libavutil      56. 31.100 / 56. 31.100\n",
      "  libavcodec     58. 54.100 / 58. 54.100\n",
      "  libavformat    58. 29.100 / 58. 29.100\n",
      "  libavdevice    58.  8.100 / 58.  8.100\n",
      "  libavfilter     7. 57.100 /  7. 57.100\n",
      "  libavresample   4.  0.  0 /  4.  0.  0\n",
      "  libswscale      5.  5.100 /  5.  5.100\n",
      "  libswresample   3.  5.100 /  3.  5.100\n",
      "  libpostproc    55.  5.100 / 55.  5.100\n",
      "Input #0, image2, from 'test_5_0.8_0.1/background/background_%03d.png':\n",
      "  Duration: 00:00:33.30, start: 0.000000, bitrate: N/A\n",
      "    Stream #0:0: Video: png, rgb24(pc), 352x240, 30 fps, 30 tbr, 30 tbn, 30 tbc\n",
      "Stream mapping:\n",
      "  Stream #0:0 -> #0:0 (png (native) -> h264 (libx264))\n",
      "Press [q] to stop, [?] for help\n",
      "\u001b[1;36m[libx264 @ 0x561f9cfe6700] \u001b[0musing cpu capabilities: MMX2 SSE2Fast SSSE3 SSE4.2 AVX FMA3 BMI2 AVX2\n",
      "\u001b[1;36m[libx264 @ 0x561f9cfe6700] \u001b[0mprofile High, level 1.3\n",
      "\u001b[1;36m[libx264 @ 0x561f9cfe6700] \u001b[0m264 - core 155 r2917 0a84d98 - H.264/MPEG-4 AVC codec - Copyleft 2003-2018 - http://www.videolan.org/x264.html - options: cabac=1 ref=3 deblock=1:0:0 analyse=0x3:0x113 me=hex subme=7 psy=1 psy_rd=1.00:0.00 mixed_ref=1 me_range=16 chroma_me=1 trellis=1 8x8dct=1 cqm=0 deadzone=21,11 fast_pskip=1 chroma_qp_offset=-2 threads=6 lookahead_threads=1 sliced_threads=0 nr=0 decimate=1 interlaced=0 bluray_compat=0 constrained_intra=0 bframes=3 b_pyramid=2 b_adapt=1 b_bias=0 direct=1 weightb=1 open_gop=0 weightp=2 keyint=250 keyint_min=25 scenecut=40 intra_refresh=0 rc_lookahead=40 rc=crf mbtree=1 crf=20.0 qcomp=0.60 qpmin=0 qpmax=69 qpstep=4 ip_ratio=1.40 aq=1:1.00\n",
      "Output #0, mp4, to 'test_5_0.8_0.1/background.mp4':\n",
      "  Metadata:\n",
      "    encoder         : Lavf58.29.100\n",
      "    Stream #0:0: Video: h264 (libx264) (avc1 / 0x31637661), yuv420p, 352x240, q=-1--1, 30 fps, 15360 tbn, 30 tbc\n",
      "    Metadata:\n",
      "      encoder         : Lavc58.54.100 libx264\n",
      "    Side data:\n",
      "      cpb: bitrate max/min/avg: 0/0/0 buffer size: 0 vbv_delay: -1\n"
     ]
    },
    {
     "name": "stderr",
     "output_type": "stream",
     "text": [
      "\n"
     ]
    },
    {
     "name": "stdout",
     "output_type": "stream",
     "text": [
      "frame=  999 fps=156 q=-1.0 Lsize=    2411kB time=00:00:33.20 bitrate= 594.9kbits/s speed=5.18x    \n",
      "video:2399kB audio:0kB subtitle:0kB other streams:0kB global headers:0kB muxing overhead: 0.522254%\n",
      "\u001b[1;36m[libx264 @ 0x561f9cfe6700] \u001b[0mframe I:5     Avg QP:18.69  size: 18711\n",
      "\u001b[1;36m[libx264 @ 0x561f9cfe6700] \u001b[0mframe P:252   Avg QP:21.06  size:  4483\n",
      "\u001b[1;36m[libx264 @ 0x561f9cfe6700] \u001b[0mframe B:742   Avg QP:25.85  size:  1661\n",
      "\u001b[1;36m[libx264 @ 0x561f9cfe6700] \u001b[0mconsecutive B-frames:  0.9%  0.2%  0.0% 98.9%\n",
      "\u001b[1;36m[libx264 @ 0x561f9cfe6700] \u001b[0mmb I  I16..4: 11.1% 53.1% 35.8%\n",
      "\u001b[1;36m[libx264 @ 0x561f9cfe6700] \u001b[0mmb P  I16..4:  1.1%  0.9%  2.7%  P16..4: 48.1% 15.7% 20.6%  0.0%  0.0%    skip:10.8%\n",
      "\u001b[1;36m[libx264 @ 0x561f9cfe6700] \u001b[0mmb B  I16..4:  0.0%  0.1%  0.9%  B16..8: 33.5%  4.7%  3.8%  direct: 7.0%  skip:49.9%  L0:46.5% L1:46.8% BI: 6.7%\n",
      "\u001b[1;36m[libx264 @ 0x561f9cfe6700] \u001b[0m8x8 transform intra:22.6% inter:41.3%\n",
      "\u001b[1;36m[libx264 @ 0x561f9cfe6700] \u001b[0mcoded y,uvDC,uvAC intra: 75.0% 63.4% 41.4% inter: 16.7% 33.7% 8.9%\n",
      "\u001b[1;36m[libx264 @ 0x561f9cfe6700] \u001b[0mi16 v,h,dc,p: 91%  2%  4%  3%\n",
      "\u001b[1;36m[libx264 @ 0x561f9cfe6700] \u001b[0mi8 v,h,dc,ddl,ddr,vr,hd,vl,hu:  6% 14% 45%  5%  6%  4% 10%  4%  9%\n",
      "\u001b[1;36m[libx264 @ 0x561f9cfe6700] \u001b[0mi4 v,h,dc,ddl,ddr,vr,hd,vl,hu: 16% 13% 25%  8%  7%  8%  9%  7%  8%\n",
      "\u001b[1;36m[libx264 @ 0x561f9cfe6700] \u001b[0mi8c dc,h,v,p: 56% 11% 29%  4%\n",
      "\u001b[1;36m[libx264 @ 0x561f9cfe6700] \u001b[0mWeighted P-Frames: Y:17.5% UV:0.4%\n",
      "\u001b[1;36m[libx264 @ 0x561f9cfe6700] \u001b[0mref P L0: 42.8%  7.3% 31.8% 15.2%  2.9%\n",
      "\u001b[1;36m[libx264 @ 0x561f9cfe6700] \u001b[0mref B L0: 66.1% 26.3%  7.5%\n",
      "\u001b[1;36m[libx264 @ 0x561f9cfe6700] \u001b[0mref B L1: 81.9% 18.1%\n",
      "\u001b[1;36m[libx264 @ 0x561f9cfe6700] \u001b[0mkb/s:589.88\n",
      "ffmpeg version 4.2.7-0ubuntu0.1 Copyright (c) 2000-2022 the FFmpeg developers\n",
      "  built with gcc 9 (Ubuntu 9.4.0-1ubuntu1~20.04.1)\n",
      "  configuration: --prefix=/usr --extra-version=0ubuntu0.1 --toolchain=hardened --libdir=/usr/lib/x86_64-linux-gnu --incdir=/usr/include/x86_64-linux-gnu --arch=amd64 --enable-gpl --disable-stripping --enable-avresample --disable-filter=resample --enable-avisynth --enable-gnutls --enable-ladspa --enable-libaom --enable-libass --enable-libbluray --enable-libbs2b --enable-libcaca --enable-libcdio --enable-libcodec2 --enable-libflite --enable-libfontconfig --enable-libfreetype --enable-libfribidi --enable-libgme --enable-libgsm --enable-libjack --enable-libmp3lame --enable-libmysofa --enable-libopenjpeg --enable-libopenmpt --enable-libopus --enable-libpulse --enable-librsvg --enable-librubberband --enable-libshine --enable-libsnappy --enable-libsoxr --enable-libspeex --enable-libssh --enable-libtheora --enable-libtwolame --enable-libvidstab --enable-libvorbis --enable-libvpx --enable-libwavpack --enable-libwebp --enable-libx265 --enable-libxml2 --enable-libxvid --enable-libzmq --enable-libzvbi --enable-lv2 --enable-omx --enable-openal --enable-opencl --enable-opengl --enable-sdl2 --enable-libdc1394 --enable-libdrm --enable-libiec61883 --enable-nvenc --enable-chromaprint --enable-frei0r --enable-libx264 --enable-shared\n",
      "  libavutil      56. 31.100 / 56. 31.100\n",
      "  libavcodec     58. 54.100 / 58. 54.100\n",
      "  libavformat    58. 29.100 / 58. 29.100\n",
      "  libavdevice    58.  8.100 / 58.  8.100\n",
      "  libavfilter     7. 57.100 /  7. 57.100\n",
      "  libavresample   4.  0.  0 /  4.  0.  0\n",
      "  libswscale      5.  5.100 /  5.  5.100\n",
      "  libswresample   3.  5.100 /  3.  5.100\n",
      "  libpostproc    55.  5.100 / 55.  5.100\n",
      "Input #0, image2, from 'test_5_0.8_0.1/foreground/foreground_%03d.png':\n",
      "  Duration: 00:00:33.30, start: 0.000000, bitrate: N/A\n",
      "    Stream #0:0: Video: png, rgb24(pc), 352x240, 30 fps, 30 tbr, 30 tbn, 30 tbc\n",
      "Stream mapping:\n",
      "  Stream #0:0 -> #0:0 (png (native) -> h264 (libx264))\n",
      "Press [q] to stop, [?] for help\n",
      "\u001b[1;36m[libx264 @ 0x556fe2a6b700] \u001b[0musing cpu capabilities: MMX2 SSE2Fast SSSE3 SSE4.2 AVX FMA3 BMI2 AVX2\n",
      "\u001b[1;36m[libx264 @ 0x556fe2a6b700] \u001b[0mprofile High, level 1.3\n",
      "\u001b[1;36m[libx264 @ 0x556fe2a6b700] \u001b[0m264 - core 155 r2917 0a84d98 - H.264/MPEG-4 AVC codec - Copyleft 2003-2018 - http://www.videolan.org/x264.html - options: cabac=1 ref=3 deblock=1:0:0 analyse=0x3:0x113 me=hex subme=7 psy=1 psy_rd=1.00:0.00 mixed_ref=1 me_range=16 chroma_me=1 trellis=1 8x8dct=1 cqm=0 deadzone=21,11 fast_pskip=1 chroma_qp_offset=-2 threads=6 lookahead_threads=1 sliced_threads=0 nr=0 decimate=1 interlaced=0 bluray_compat=0 constrained_intra=0 bframes=3 b_pyramid=2 b_adapt=1 b_bias=0 direct=1 weightb=1 open_gop=0 weightp=2 keyint=250 keyint_min=25 scenecut=40 intra_refresh=0 rc_lookahead=40 rc=crf mbtree=1 crf=20.0 qcomp=0.60 qpmin=0 qpmax=69 qpstep=4 ip_ratio=1.40 aq=1:1.00\n",
      "Output #0, mp4, to 'test_5_0.8_0.1/foreground.mp4':\n",
      "  Metadata:\n",
      "    encoder         : Lavf58.29.100\n",
      "    Stream #0:0: Video: h264 (libx264) (avc1 / 0x31637661), yuv420p, 352x240, q=-1--1, 30 fps, 15360 tbn, 30 tbc\n",
      "    Metadata:\n",
      "      encoder         : Lavc58.54.100 libx264\n",
      "    Side data:\n",
      "      cpb: bitrate max/min/avg: 0/0/0 buffer size: 0 vbv_delay: -1\n",
      "frame=  999 fps=222 q=-1.0 Lsize=    1807kB time=00:00:33.20 bitrate= 445.8kbits/s speed=7.38x    \n",
      "video:1794kB audio:0kB subtitle:0kB other streams:0kB global headers:0kB muxing overhead: 0.689578%\n",
      "\u001b[1;36m[libx264 @ 0x556fe2a6b700] \u001b[0mframe I:9     Avg QP:19.83  size:  3599\n",
      "\u001b[1;36m[libx264 @ 0x556fe2a6b700] \u001b[0mframe P:270   Avg QP:24.81  size:  2034\n",
      "\u001b[1;36m[libx264 @ 0x556fe2a6b700] \u001b[0mframe B:720   Avg QP:26.06  size:  1744\n",
      "\u001b[1;36m[libx264 @ 0x556fe2a6b700] \u001b[0mconsecutive B-frames:  2.5%  2.2%  6.0% 89.3%\n",
      "\u001b[1;36m[libx264 @ 0x556fe2a6b700] \u001b[0mmb I  I16..4: 14.4% 61.6% 24.0%\n",
      "\u001b[1;36m[libx264 @ 0x556fe2a6b700] \u001b[0mmb P  I16..4:  2.1%  9.9%  8.4%  P16..4:  9.4%  2.8%  1.7%  0.0%  0.0%    skip:65.7%\n",
      "\u001b[1;36m[libx264 @ 0x556fe2a6b700] \u001b[0mmb B  I16..4:  0.6%  1.7%  2.1%  B16..8: 28.5%  4.4%  2.2%  direct: 4.4%  skip:56.0%  L0:50.8% L1:43.2% BI: 6.0%\n",
      "\u001b[1;36m[libx264 @ 0x556fe2a6b700] \u001b[0m8x8 transform intra:46.4% inter:3.0%\n",
      "\u001b[1;36m[libx264 @ 0x556fe2a6b700] \u001b[0mcoded y,uvDC,uvAC intra: 32.6% 13.5% 9.0% inter: 7.8% 1.1% 0.1%\n",
      "\u001b[1;36m[libx264 @ 0x556fe2a6b700] \u001b[0mi16 v,h,dc,p: 50%  8% 41%  0%\n",
      "\u001b[1;36m[libx264 @ 0x556fe2a6b700] \u001b[0mi8 v,h,dc,ddl,ddr,vr,hd,vl,hu: 14%  4% 81%  0%  0%  0%  0%  0%  0%\n",
      "\u001b[1;36m[libx264 @ 0x556fe2a6b700] \u001b[0mi4 v,h,dc,ddl,ddr,vr,hd,vl,hu: 21% 11% 50%  3%  3%  3%  3%  3%  3%\n",
      "\u001b[1;36m[libx264 @ 0x556fe2a6b700] \u001b[0mi8c dc,h,v,p: 91%  3%  6%  1%\n",
      "\u001b[1;36m[libx264 @ 0x556fe2a6b700] \u001b[0mWeighted P-Frames: Y:33.0% UV:0.4%\n",
      "\u001b[1;36m[libx264 @ 0x556fe2a6b700] \u001b[0mref P L0: 58.3%  3.4% 21.3% 13.4%  3.6%\n",
      "\u001b[1;36m[libx264 @ 0x556fe2a6b700] \u001b[0mref B L0: 69.4% 25.8%  4.8%\n",
      "\u001b[1;36m[libx264 @ 0x556fe2a6b700] \u001b[0mref B L1: 90.0% 10.0%\n",
      "\u001b[1;36m[libx264 @ 0x556fe2a6b700] \u001b[0mkb/s:441.28\n"
     ]
    }
   ],
   "source": [
    "import os\n",
    "import shutil\n",
    "K = 5\n",
    "T = 0.8\n",
    "alpha = 0.1\n",
    "os.mkdir(f'test_{K}_{T}_{alpha}')\n",
    "main(f'test_{K}_{T}_{alpha}')"
   ]
  },
  {
   "cell_type": "code",
   "execution_count": 8,
   "id": "c9608ea7",
   "metadata": {},
   "outputs": [
    {
     "name": "stderr",
     "output_type": "stream",
     "text": [
      "  0%|                                                                                                                | 0/1000 [00:00<?, ?it/s]/tmp/ipykernel_55814/1958088092.py:16: RuntimeWarning: invalid value encountered in sqrt\n",
      "  return 1/(np.sqrt(2*np.pi*(var+eps))) * np.exp(-mahalD/2)\n",
      "/tmp/ipykernel_55814/1958088092.py:16: RuntimeWarning: overflow encountered in exp\n",
      "  return 1/(np.sqrt(2*np.pi*(var+eps))) * np.exp(-mahalD/2)\n",
      "/tmp/ipykernel_55814/1958088092.py:60: RuntimeWarning: invalid value encountered in sqrt\n",
      "  pi_by_var = -1*params['pi']/np.sqrt(params['var'] + eps)\n",
      "100%|███████████████████████████████████████████████████████████████████████████████████████████████████▉| 999/1000 [1:06:53<00:04,  4.02s/it]"
     ]
    },
    {
     "name": "stdout",
     "output_type": "stream",
     "text": [
      "ffmpeg version 4.2.7-0ubuntu0.1 Copyright (c) 2000-2022 the FFmpeg developers\n",
      "  built with gcc 9 (Ubuntu 9.4.0-1ubuntu1~20.04.1)\n",
      "  configuration: --prefix=/usr --extra-version=0ubuntu0.1 --toolchain=hardened --libdir=/usr/lib/x86_64-linux-gnu --incdir=/usr/include/x86_64-linux-gnu --arch=amd64 --enable-gpl --disable-stripping --enable-avresample --disable-filter=resample --enable-avisynth --enable-gnutls --enable-ladspa --enable-libaom --enable-libass --enable-libbluray --enable-libbs2b --enable-libcaca --enable-libcdio --enable-libcodec2 --enable-libflite --enable-libfontconfig --enable-libfreetype --enable-libfribidi --enable-libgme --enable-libgsm --enable-libjack --enable-libmp3lame --enable-libmysofa --enable-libopenjpeg --enable-libopenmpt --enable-libopus --enable-libpulse --enable-librsvg --enable-librubberband --enable-libshine --enable-libsnappy --enable-libsoxr --enable-libspeex --enable-libssh --enable-libtheora --enable-libtwolame --enable-libvidstab --enable-libvorbis --enable-libvpx --enable-libwavpack --enable-libwebp --enable-libx265 --enable-libxml2 --enable-libxvid --enable-libzmq --enable-libzvbi --enable-lv2 --enable-omx --enable-openal --enable-opencl --enable-opengl --enable-sdl2 --enable-libdc1394 --enable-libdrm --enable-libiec61883 --enable-nvenc --enable-chromaprint --enable-frei0r --enable-libx264 --enable-shared\n",
      "  libavutil      56. 31.100 / 56. 31.100\n",
      "  libavcodec     58. 54.100 / 58. 54.100\n",
      "  libavformat    58. 29.100 / 58. 29.100\n",
      "  libavdevice    58.  8.100 / 58.  8.100\n",
      "  libavfilter     7. 57.100 /  7. 57.100\n",
      "  libavresample   4.  0.  0 /  4.  0.  0\n",
      "  libswscale      5.  5.100 /  5.  5.100\n",
      "  libswresample   3.  5.100 /  3.  5.100\n",
      "  libpostproc    55.  5.100 / 55.  5.100\n",
      "Input #0, image2, from 'test_5_0.5_0.01/background/background_%03d.png':\n",
      "  Duration: 00:00:33.30, start: 0.000000, bitrate: N/A\n",
      "    Stream #0:0: Video: png, rgb24(pc), 352x240, 30 fps, 30 tbr, 30 tbn, 30 tbc\n",
      "Stream mapping:\n",
      "  Stream #0:0 -> #0:0 (png (native) -> h264 (libx264))\n",
      "Press [q] to stop, [?] for help\n",
      "\u001b[1;36m[libx264 @ 0x564a3f076800] \u001b[0musing cpu capabilities: MMX2 SSE2Fast SSSE3 SSE4.2 AVX FMA3 BMI2 AVX2\n",
      "\u001b[1;36m[libx264 @ 0x564a3f076800] \u001b[0mprofile High, level 1.3\n",
      "\u001b[1;36m[libx264 @ 0x564a3f076800] \u001b[0m264 - core 155 r2917 0a84d98 - H.264/MPEG-4 AVC codec - Copyleft 2003-2018 - http://www.videolan.org/x264.html - options: cabac=1 ref=3 deblock=1:0:0 analyse=0x3:0x113 me=hex subme=7 psy=1 psy_rd=1.00:0.00 mixed_ref=1 me_range=16 chroma_me=1 trellis=1 8x8dct=1 cqm=0 deadzone=21,11 fast_pskip=1 chroma_qp_offset=-2 threads=6 lookahead_threads=1 sliced_threads=0 nr=0 decimate=1 interlaced=0 bluray_compat=0 constrained_intra=0 bframes=3 b_pyramid=2 b_adapt=1 b_bias=0 direct=1 weightb=1 open_gop=0 weightp=2 keyint=250 keyint_min=25 scenecut=40 intra_refresh=0 rc_lookahead=40 rc=crf mbtree=1 crf=20.0 qcomp=0.60 qpmin=0 qpmax=69 qpstep=4 ip_ratio=1.40 aq=1:1.00\n",
      "Output #0, mp4, to 'test_5_0.5_0.01/background.mp4':\n",
      "  Metadata:\n",
      "    encoder         : Lavf58.29.100\n",
      "    Stream #0:0: Video: h264 (libx264) (avc1 / 0x31637661), yuv420p, 352x240, q=-1--1, 30 fps, 15360 tbn, 30 tbc\n",
      "    Metadata:\n",
      "      encoder         : Lavc58.54.100 libx264\n",
      "    Side data:\n",
      "      cpb: bitrate max/min/avg: 0/0/0 buffer size: 0 vbv_delay: -1\n"
     ]
    },
    {
     "name": "stderr",
     "output_type": "stream",
     "text": [
      "\n"
     ]
    },
    {
     "name": "stdout",
     "output_type": "stream",
     "text": [
      "frame=  999 fps=164 q=-1.0 Lsize=    2070kB time=00:00:33.20 bitrate= 510.7kbits/s speed=5.46x    \n",
      "video:2057kB audio:0kB subtitle:0kB other streams:0kB global headers:0kB muxing overhead: 0.609714%\n",
      "\u001b[1;36m[libx264 @ 0x564a3f076800] \u001b[0mframe I:4     Avg QP:18.37  size: 18484\n",
      "\u001b[1;36m[libx264 @ 0x564a3f076800] \u001b[0mframe P:251   Avg QP:21.21  size:  4086\n",
      "\u001b[1;36m[libx264 @ 0x564a3f076800] \u001b[0mframe B:744   Avg QP:25.68  size:  1352\n",
      "\u001b[1;36m[libx264 @ 0x564a3f076800] \u001b[0mconsecutive B-frames:  0.5%  0.4%  0.6% 98.5%\n",
      "\u001b[1;36m[libx264 @ 0x564a3f076800] \u001b[0mmb I  I16..4: 15.5% 44.6% 39.9%\n",
      "\u001b[1;36m[libx264 @ 0x564a3f076800] \u001b[0mmb P  I16..4:  0.9%  0.9%  1.4%  P16..4: 47.1% 16.9% 21.3%  0.0%  0.0%    skip:11.3%\n",
      "\u001b[1;36m[libx264 @ 0x564a3f076800] \u001b[0mmb B  I16..4:  0.0%  0.0%  0.7%  B16..8: 27.8%  7.1%  3.9%  direct: 6.9%  skip:53.5%  L0:46.9% L1:46.9% BI: 6.2%\n",
      "\u001b[1;36m[libx264 @ 0x564a3f076800] \u001b[0m8x8 transform intra:24.2% inter:41.7%\n",
      "\u001b[1;36m[libx264 @ 0x564a3f076800] \u001b[0mcoded y,uvDC,uvAC intra: 67.6% 69.4% 55.3% inter: 15.8% 31.8% 8.8%\n",
      "\u001b[1;36m[libx264 @ 0x564a3f076800] \u001b[0mi16 v,h,dc,p: 87%  6%  5%  1%\n",
      "\u001b[1;36m[libx264 @ 0x564a3f076800] \u001b[0mi8 v,h,dc,ddl,ddr,vr,hd,vl,hu:  6% 18% 40%  5%  5%  3% 11%  3%  9%\n",
      "\u001b[1;36m[libx264 @ 0x564a3f076800] \u001b[0mi4 v,h,dc,ddl,ddr,vr,hd,vl,hu: 18% 18% 27%  6%  5%  5%  9%  5%  7%\n",
      "\u001b[1;36m[libx264 @ 0x564a3f076800] \u001b[0mi8c dc,h,v,p: 54% 17% 24%  4%\n",
      "\u001b[1;36m[libx264 @ 0x564a3f076800] \u001b[0mWeighted P-Frames: Y:6.0% UV:0.0%\n",
      "\u001b[1;36m[libx264 @ 0x564a3f076800] \u001b[0mref P L0: 41.0%  6.7% 37.5% 13.9%  0.9%\n",
      "\u001b[1;36m[libx264 @ 0x564a3f076800] \u001b[0mref B L0: 68.0% 24.8%  7.1%\n",
      "\u001b[1;36m[libx264 @ 0x564a3f076800] \u001b[0mref B L1: 84.1% 15.9%\n",
      "\u001b[1;36m[libx264 @ 0x564a3f076800] \u001b[0mkb/s:505.88\n",
      "ffmpeg version 4.2.7-0ubuntu0.1 Copyright (c) 2000-2022 the FFmpeg developers\n",
      "  built with gcc 9 (Ubuntu 9.4.0-1ubuntu1~20.04.1)\n",
      "  configuration: --prefix=/usr --extra-version=0ubuntu0.1 --toolchain=hardened --libdir=/usr/lib/x86_64-linux-gnu --incdir=/usr/include/x86_64-linux-gnu --arch=amd64 --enable-gpl --disable-stripping --enable-avresample --disable-filter=resample --enable-avisynth --enable-gnutls --enable-ladspa --enable-libaom --enable-libass --enable-libbluray --enable-libbs2b --enable-libcaca --enable-libcdio --enable-libcodec2 --enable-libflite --enable-libfontconfig --enable-libfreetype --enable-libfribidi --enable-libgme --enable-libgsm --enable-libjack --enable-libmp3lame --enable-libmysofa --enable-libopenjpeg --enable-libopenmpt --enable-libopus --enable-libpulse --enable-librsvg --enable-librubberband --enable-libshine --enable-libsnappy --enable-libsoxr --enable-libspeex --enable-libssh --enable-libtheora --enable-libtwolame --enable-libvidstab --enable-libvorbis --enable-libvpx --enable-libwavpack --enable-libwebp --enable-libx265 --enable-libxml2 --enable-libxvid --enable-libzmq --enable-libzvbi --enable-lv2 --enable-omx --enable-openal --enable-opencl --enable-opengl --enable-sdl2 --enable-libdc1394 --enable-libdrm --enable-libiec61883 --enable-nvenc --enable-chromaprint --enable-frei0r --enable-libx264 --enable-shared\n",
      "  libavutil      56. 31.100 / 56. 31.100\n",
      "  libavcodec     58. 54.100 / 58. 54.100\n",
      "  libavformat    58. 29.100 / 58. 29.100\n",
      "  libavdevice    58.  8.100 / 58.  8.100\n",
      "  libavfilter     7. 57.100 /  7. 57.100\n",
      "  libavresample   4.  0.  0 /  4.  0.  0\n",
      "  libswscale      5.  5.100 /  5.  5.100\n",
      "  libswresample   3.  5.100 /  3.  5.100\n",
      "  libpostproc    55.  5.100 / 55.  5.100\n",
      "Input #0, image2, from 'test_5_0.5_0.01/foreground/foreground_%03d.png':\n",
      "  Duration: 00:00:33.30, start: 0.000000, bitrate: N/A\n",
      "    Stream #0:0: Video: png, rgb24(pc), 352x240, 30 fps, 30 tbr, 30 tbn, 30 tbc\n",
      "Stream mapping:\n",
      "  Stream #0:0 -> #0:0 (png (native) -> h264 (libx264))\n",
      "Press [q] to stop, [?] for help\n",
      "\u001b[1;36m[libx264 @ 0x5572c4cb8440] \u001b[0musing cpu capabilities: MMX2 SSE2Fast SSSE3 SSE4.2 AVX FMA3 BMI2 AVX2\n",
      "\u001b[1;36m[libx264 @ 0x5572c4cb8440] \u001b[0mprofile High, level 1.3\n",
      "\u001b[1;36m[libx264 @ 0x5572c4cb8440] \u001b[0m264 - core 155 r2917 0a84d98 - H.264/MPEG-4 AVC codec - Copyleft 2003-2018 - http://www.videolan.org/x264.html - options: cabac=1 ref=3 deblock=1:0:0 analyse=0x3:0x113 me=hex subme=7 psy=1 psy_rd=1.00:0.00 mixed_ref=1 me_range=16 chroma_me=1 trellis=1 8x8dct=1 cqm=0 deadzone=21,11 fast_pskip=1 chroma_qp_offset=-2 threads=6 lookahead_threads=1 sliced_threads=0 nr=0 decimate=1 interlaced=0 bluray_compat=0 constrained_intra=0 bframes=3 b_pyramid=2 b_adapt=1 b_bias=0 direct=1 weightb=1 open_gop=0 weightp=2 keyint=250 keyint_min=25 scenecut=40 intra_refresh=0 rc_lookahead=40 rc=crf mbtree=1 crf=20.0 qcomp=0.60 qpmin=0 qpmax=69 qpstep=4 ip_ratio=1.40 aq=1:1.00\n",
      "Output #0, mp4, to 'test_5_0.5_0.01/foreground.mp4':\n",
      "  Metadata:\n",
      "    encoder         : Lavf58.29.100\n",
      "    Stream #0:0: Video: h264 (libx264) (avc1 / 0x31637661), yuv420p, 352x240, q=-1--1, 30 fps, 15360 tbn, 30 tbc\n",
      "    Metadata:\n",
      "      encoder         : Lavc58.54.100 libx264\n",
      "    Side data:\n",
      "      cpb: bitrate max/min/avg: 0/0/0 buffer size: 0 vbv_delay: -1\n",
      "frame=  999 fps=235 q=-1.0 Lsize=    1528kB time=00:00:33.20 bitrate= 377.0kbits/s speed=7.82x    \n",
      "video:1515kB audio:0kB subtitle:0kB other streams:0kB global headers:0kB muxing overhead: 0.816581%\n",
      "\u001b[1;36m[libx264 @ 0x5572c4cb8440] \u001b[0mframe I:8     Avg QP:19.05  size:  7190\n",
      "\u001b[1;36m[libx264 @ 0x5572c4cb8440] \u001b[0mframe P:284   Avg QP:24.69  size:  1927\n",
      "\u001b[1;36m[libx264 @ 0x5572c4cb8440] \u001b[0mframe B:707   Avg QP:27.65  size:  1338\n",
      "\u001b[1;36m[libx264 @ 0x5572c4cb8440] \u001b[0mconsecutive B-frames:  4.3%  3.0%  3.0% 89.7%\n",
      "\u001b[1;36m[libx264 @ 0x5572c4cb8440] \u001b[0mmb I  I16..4: 31.0% 31.9% 37.2%\n",
      "\u001b[1;36m[libx264 @ 0x5572c4cb8440] \u001b[0mmb P  I16..4:  1.1%  5.8%  4.3%  P16..4: 10.7%  8.6%  3.2%  0.0%  0.0%    skip:66.3%\n",
      "\u001b[1;36m[libx264 @ 0x5572c4cb8440] \u001b[0mmb B  I16..4:  0.2%  0.6%  1.7%  B16..8: 16.2%  8.9%  2.7%  direct: 2.3%  skip:67.5%  L0:48.7% L1:41.4% BI: 9.9%\n",
      "\u001b[1;36m[libx264 @ 0x5572c4cb8440] \u001b[0m8x8 transform intra:40.5% inter:6.4%\n",
      "\u001b[1;36m[libx264 @ 0x5572c4cb8440] \u001b[0mcoded y,uvDC,uvAC intra: 33.5% 29.8% 24.8% inter: 7.5% 2.3% 0.3%\n",
      "\u001b[1;36m[libx264 @ 0x5572c4cb8440] \u001b[0mi16 v,h,dc,p: 72% 25%  3%  0%\n",
      "\u001b[1;36m[libx264 @ 0x5572c4cb8440] \u001b[0mi8 v,h,dc,ddl,ddr,vr,hd,vl,hu: 13%  5% 81%  0%  0%  0%  0%  0%  0%\n",
      "\u001b[1;36m[libx264 @ 0x5572c4cb8440] \u001b[0mi4 v,h,dc,ddl,ddr,vr,hd,vl,hu: 23% 17% 39%  3%  3%  3%  4%  3%  4%\n",
      "\u001b[1;36m[libx264 @ 0x5572c4cb8440] \u001b[0mi8c dc,h,v,p: 78% 11% 10%  1%\n",
      "\u001b[1;36m[libx264 @ 0x5572c4cb8440] \u001b[0mWeighted P-Frames: Y:17.3% UV:2.1%\n",
      "\u001b[1;36m[libx264 @ 0x5572c4cb8440] \u001b[0mref P L0: 54.4%  4.4% 21.8% 16.4%  3.0%\n",
      "\u001b[1;36m[libx264 @ 0x5572c4cb8440] \u001b[0mref B L0: 70.1% 23.7%  6.2%\n",
      "\u001b[1;36m[libx264 @ 0x5572c4cb8440] \u001b[0mref B L1: 89.0% 11.0%\n",
      "\u001b[1;36m[libx264 @ 0x5572c4cb8440] \u001b[0mkb/s:372.62\n"
     ]
    }
   ],
   "source": [
    "K = 5\n",
    "T = 0.5\n",
    "alpha = 0.01\n",
    "os.mkdir(f'test_{K}_{T}_{alpha}')\n",
    "main(f'test_{K}_{T}_{alpha}')"
   ]
  },
  {
   "cell_type": "code",
   "execution_count": 9,
   "id": "6544d8d6",
   "metadata": {},
   "outputs": [
    {
     "name": "stderr",
     "output_type": "stream",
     "text": [
      "  0%|                                                                                                                | 0/1000 [00:00<?, ?it/s]/tmp/ipykernel_55814/1958088092.py:16: RuntimeWarning: invalid value encountered in sqrt\n",
      "  return 1/(np.sqrt(2*np.pi*(var+eps))) * np.exp(-mahalD/2)\n",
      "/tmp/ipykernel_55814/1958088092.py:16: RuntimeWarning: overflow encountered in exp\n",
      "  return 1/(np.sqrt(2*np.pi*(var+eps))) * np.exp(-mahalD/2)\n",
      "/tmp/ipykernel_55814/1958088092.py:60: RuntimeWarning: invalid value encountered in sqrt\n",
      "  pi_by_var = -1*params['pi']/np.sqrt(params['var'] + eps)\n",
      "100%|███████████████████████████████████████████████████████████████████████████████████████████████████▉| 999/1000 [1:03:49<00:03,  3.83s/it]\n"
     ]
    },
    {
     "name": "stdout",
     "output_type": "stream",
     "text": [
      "ffmpeg version 4.2.7-0ubuntu0.1 Copyright (c) 2000-2022 the FFmpeg developers\n",
      "  built with gcc 9 (Ubuntu 9.4.0-1ubuntu1~20.04.1)\n",
      "  configuration: --prefix=/usr --extra-version=0ubuntu0.1 --toolchain=hardened --libdir=/usr/lib/x86_64-linux-gnu --incdir=/usr/include/x86_64-linux-gnu --arch=amd64 --enable-gpl --disable-stripping --enable-avresample --disable-filter=resample --enable-avisynth --enable-gnutls --enable-ladspa --enable-libaom --enable-libass --enable-libbluray --enable-libbs2b --enable-libcaca --enable-libcdio --enable-libcodec2 --enable-libflite --enable-libfontconfig --enable-libfreetype --enable-libfribidi --enable-libgme --enable-libgsm --enable-libjack --enable-libmp3lame --enable-libmysofa --enable-libopenjpeg --enable-libopenmpt --enable-libopus --enable-libpulse --enable-librsvg --enable-librubberband --enable-libshine --enable-libsnappy --enable-libsoxr --enable-libspeex --enable-libssh --enable-libtheora --enable-libtwolame --enable-libvidstab --enable-libvorbis --enable-libvpx --enable-libwavpack --enable-libwebp --enable-libx265 --enable-libxml2 --enable-libxvid --enable-libzmq --enable-libzvbi --enable-lv2 --enable-omx --enable-openal --enable-opencl --enable-opengl --enable-sdl2 --enable-libdc1394 --enable-libdrm --enable-libiec61883 --enable-nvenc --enable-chromaprint --enable-frei0r --enable-libx264 --enable-shared\n",
      "  libavutil      56. 31.100 / 56. 31.100\n",
      "  libavcodec     58. 54.100 / 58. 54.100\n",
      "  libavformat    58. 29.100 / 58. 29.100\n",
      "  libavdevice    58.  8.100 / 58.  8.100\n",
      "  libavfilter     7. 57.100 /  7. 57.100\n",
      "  libavresample   4.  0.  0 /  4.  0.  0\n",
      "  libswscale      5.  5.100 /  5.  5.100\n",
      "  libswresample   3.  5.100 /  3.  5.100\n",
      "  libpostproc    55.  5.100 / 55.  5.100\n",
      "Input #0, image2, from 'test_5_0.3_0.1/background/background_%03d.png':\n",
      "  Duration: 00:00:33.30, start: 0.000000, bitrate: N/A\n",
      "    Stream #0:0: Video: png, rgb24(pc), 352x240, 30 fps, 30 tbr, 30 tbn, 30 tbc\n",
      "Stream mapping:\n",
      "  Stream #0:0 -> #0:0 (png (native) -> h264 (libx264))\n",
      "Press [q] to stop, [?] for help\n",
      "\u001b[1;36m[libx264 @ 0x55dc2073ca40] \u001b[0musing cpu capabilities: MMX2 SSE2Fast SSSE3 SSE4.2 AVX FMA3 BMI2 AVX2\n",
      "\u001b[1;36m[libx264 @ 0x55dc2073ca40] \u001b[0mprofile High, level 1.3\n",
      "\u001b[1;36m[libx264 @ 0x55dc2073ca40] \u001b[0m264 - core 155 r2917 0a84d98 - H.264/MPEG-4 AVC codec - Copyleft 2003-2018 - http://www.videolan.org/x264.html - options: cabac=1 ref=3 deblock=1:0:0 analyse=0x3:0x113 me=hex subme=7 psy=1 psy_rd=1.00:0.00 mixed_ref=1 me_range=16 chroma_me=1 trellis=1 8x8dct=1 cqm=0 deadzone=21,11 fast_pskip=1 chroma_qp_offset=-2 threads=6 lookahead_threads=1 sliced_threads=0 nr=0 decimate=1 interlaced=0 bluray_compat=0 constrained_intra=0 bframes=3 b_pyramid=2 b_adapt=1 b_bias=0 direct=1 weightb=1 open_gop=0 weightp=2 keyint=250 keyint_min=25 scenecut=40 intra_refresh=0 rc_lookahead=40 rc=crf mbtree=1 crf=20.0 qcomp=0.60 qpmin=0 qpmax=69 qpstep=4 ip_ratio=1.40 aq=1:1.00\n",
      "Output #0, mp4, to 'test_5_0.3_0.1/background.mp4':\n",
      "  Metadata:\n",
      "    encoder         : Lavf58.29.100\n",
      "    Stream #0:0: Video: h264 (libx264) (avc1 / 0x31637661), yuv420p, 352x240, q=-1--1, 30 fps, 15360 tbn, 30 tbc\n",
      "    Metadata:\n",
      "      encoder         : Lavc58.54.100 libx264\n",
      "    Side data:\n",
      "      cpb: bitrate max/min/avg: 0/0/0 buffer size: 0 vbv_delay: -1\n",
      "frame=  999 fps=121 q=-1.0 Lsize=    7415kB time=00:00:33.20 bitrate=1829.5kbits/s speed=4.03x    \n",
      "video:7402kB audio:0kB subtitle:0kB other streams:0kB global headers:0kB muxing overhead: 0.166531%\n",
      "\u001b[1;36m[libx264 @ 0x55dc2073ca40] \u001b[0mframe I:17    Avg QP:21.94  size: 19530\n",
      "\u001b[1;36m[libx264 @ 0x55dc2073ca40] \u001b[0mframe P:295   Avg QP:25.89  size:  8450\n",
      "\u001b[1;36m[libx264 @ 0x55dc2073ca40] \u001b[0mframe B:687   Avg QP:28.20  size:  6921\n",
      "\u001b[1;36m[libx264 @ 0x55dc2073ca40] \u001b[0mconsecutive B-frames:  6.5%  3.8%  4.8% 84.9%\n",
      "\u001b[1;36m[libx264 @ 0x55dc2073ca40] \u001b[0mmb I  I16..4: 12.5% 20.9% 66.6%\n",
      "\u001b[1;36m[libx264 @ 0x55dc2073ca40] \u001b[0mmb P  I16..4:  2.3%  3.0% 16.1%  P16..4: 29.0% 19.8% 21.0%  0.0%  0.0%    skip: 8.8%\n",
      "\u001b[1;36m[libx264 @ 0x55dc2073ca40] \u001b[0mmb B  I16..4:  0.3%  0.6% 12.5%  B16..8: 29.1% 17.2% 13.4%  direct: 9.9%  skip:17.0%  L0:50.9% L1:42.9% BI: 6.2%\n",
      "\u001b[1;36m[libx264 @ 0x55dc2073ca40] \u001b[0m8x8 transform intra:9.7% inter:20.4%\n",
      "\u001b[1;36m[libx264 @ 0x55dc2073ca40] \u001b[0mcoded y,uvDC,uvAC intra: 81.9% 83.0% 65.1% inter: 35.6% 28.6% 3.9%\n",
      "\u001b[1;36m[libx264 @ 0x55dc2073ca40] \u001b[0mi16 v,h,dc,p: 77%  7% 13%  3%\n",
      "\u001b[1;36m[libx264 @ 0x55dc2073ca40] \u001b[0mi8 v,h,dc,ddl,ddr,vr,hd,vl,hu: 10% 15% 32%  6%  7%  5% 11%  5%  9%\n",
      "\u001b[1;36m[libx264 @ 0x55dc2073ca40] \u001b[0mi4 v,h,dc,ddl,ddr,vr,hd,vl,hu: 20% 19% 25%  6%  5%  5%  8%  5%  7%\n",
      "\u001b[1;36m[libx264 @ 0x55dc2073ca40] \u001b[0mi8c dc,h,v,p: 57% 21% 18%  4%\n",
      "\u001b[1;36m[libx264 @ 0x55dc2073ca40] \u001b[0mWeighted P-Frames: Y:0.3% UV:0.0%\n",
      "\u001b[1;36m[libx264 @ 0x55dc2073ca40] \u001b[0mref P L0: 40.6%  8.1% 29.5% 21.8%  0.1%\n",
      "\u001b[1;36m[libx264 @ 0x55dc2073ca40] \u001b[0mref B L0: 61.2% 29.2%  9.6%\n",
      "\u001b[1;36m[libx264 @ 0x55dc2073ca40] \u001b[0mref B L1: 82.4% 17.6%\n",
      "\u001b[1;36m[libx264 @ 0x55dc2073ca40] \u001b[0mkb/s:1820.85\n",
      "ffmpeg version 4.2.7-0ubuntu0.1 Copyright (c) 2000-2022 the FFmpeg developers\n",
      "  built with gcc 9 (Ubuntu 9.4.0-1ubuntu1~20.04.1)\n",
      "  configuration: --prefix=/usr --extra-version=0ubuntu0.1 --toolchain=hardened --libdir=/usr/lib/x86_64-linux-gnu --incdir=/usr/include/x86_64-linux-gnu --arch=amd64 --enable-gpl --disable-stripping --enable-avresample --disable-filter=resample --enable-avisynth --enable-gnutls --enable-ladspa --enable-libaom --enable-libass --enable-libbluray --enable-libbs2b --enable-libcaca --enable-libcdio --enable-libcodec2 --enable-libflite --enable-libfontconfig --enable-libfreetype --enable-libfribidi --enable-libgme --enable-libgsm --enable-libjack --enable-libmp3lame --enable-libmysofa --enable-libopenjpeg --enable-libopenmpt --enable-libopus --enable-libpulse --enable-librsvg --enable-librubberband --enable-libshine --enable-libsnappy --enable-libsoxr --enable-libspeex --enable-libssh --enable-libtheora --enable-libtwolame --enable-libvidstab --enable-libvorbis --enable-libvpx --enable-libwavpack --enable-libwebp --enable-libx265 --enable-libxml2 --enable-libxvid --enable-libzmq --enable-libzvbi --enable-lv2 --enable-omx --enable-openal --enable-opencl --enable-opengl --enable-sdl2 --enable-libdc1394 --enable-libdrm --enable-libiec61883 --enable-nvenc --enable-chromaprint --enable-frei0r --enable-libx264 --enable-shared\n",
      "  libavutil      56. 31.100 / 56. 31.100\n",
      "  libavcodec     58. 54.100 / 58. 54.100\n",
      "  libavformat    58. 29.100 / 58. 29.100\n",
      "  libavdevice    58.  8.100 / 58.  8.100\n",
      "  libavfilter     7. 57.100 /  7. 57.100\n",
      "  libavresample   4.  0.  0 /  4.  0.  0\n",
      "  libswscale      5.  5.100 /  5.  5.100\n",
      "  libswresample   3.  5.100 /  3.  5.100\n",
      "  libpostproc    55.  5.100 / 55.  5.100\n",
      "Input #0, image2, from 'test_5_0.3_0.1/foreground/foreground_%03d.png':\n",
      "  Duration: 00:00:33.30, start: 0.000000, bitrate: N/A\n",
      "    Stream #0:0: Video: png, rgb24(pc), 352x240, 30 fps, 30 tbr, 30 tbn, 30 tbc\n",
      "Stream mapping:\n",
      "  Stream #0:0 -> #0:0 (png (native) -> h264 (libx264))\n",
      "Press [q] to stop, [?] for help\n",
      "\u001b[1;36m[libx264 @ 0x55f53950d7c0] \u001b[0musing cpu capabilities: MMX2 SSE2Fast SSSE3 SSE4.2 AVX FMA3 BMI2 AVX2\n",
      "\u001b[1;36m[libx264 @ 0x55f53950d7c0] \u001b[0mprofile High, level 1.3\n",
      "\u001b[1;36m[libx264 @ 0x55f53950d7c0] \u001b[0m264 - core 155 r2917 0a84d98 - H.264/MPEG-4 AVC codec - Copyleft 2003-2018 - http://www.videolan.org/x264.html - options: cabac=1 ref=3 deblock=1:0:0 analyse=0x3:0x113 me=hex subme=7 psy=1 psy_rd=1.00:0.00 mixed_ref=1 me_range=16 chroma_me=1 trellis=1 8x8dct=1 cqm=0 deadzone=21,11 fast_pskip=1 chroma_qp_offset=-2 threads=6 lookahead_threads=1 sliced_threads=0 nr=0 decimate=1 interlaced=0 bluray_compat=0 constrained_intra=0 bframes=3 b_pyramid=2 b_adapt=1 b_bias=0 direct=1 weightb=1 open_gop=0 weightp=2 keyint=250 keyint_min=25 scenecut=40 intra_refresh=0 rc_lookahead=40 rc=crf mbtree=1 crf=20.0 qcomp=0.60 qpmin=0 qpmax=69 qpstep=4 ip_ratio=1.40 aq=1:1.00\n",
      "Output #0, mp4, to 'test_5_0.3_0.1/foreground.mp4':\n",
      "  Metadata:\n",
      "    encoder         : Lavf58.29.100\n",
      "    Stream #0:0: Video: h264 (libx264) (avc1 / 0x31637661), yuv420p, 352x240, q=-1--1, 30 fps, 15360 tbn, 30 tbc\n",
      "    Metadata:\n",
      "      encoder         : Lavc58.54.100 libx264\n",
      "    Side data:\n",
      "      cpb: bitrate max/min/avg: 0/0/0 buffer size: 0 vbv_delay: -1\n"
     ]
    },
    {
     "name": "stdout",
     "output_type": "stream",
     "text": [
      "frame=  999 fps=116 q=-1.0 Lsize=    7340kB time=00:00:33.20 bitrate=1811.1kbits/s speed=3.84x    \n",
      "video:7328kB audio:0kB subtitle:0kB other streams:0kB global headers:0kB muxing overhead: 0.163905%\n",
      "\u001b[1;36m[libx264 @ 0x55f53950d7c0] \u001b[0mframe I:35    Avg QP:23.52  size: 13078\n",
      "\u001b[1;36m[libx264 @ 0x55f53950d7c0] \u001b[0mframe P:321   Avg QP:27.32  size:  8317\n",
      "\u001b[1;36m[libx264 @ 0x55f53950d7c0] \u001b[0mframe B:643   Avg QP:28.16  size:  6805\n",
      "\u001b[1;36m[libx264 @ 0x55f53950d7c0] \u001b[0mconsecutive B-frames: 12.4%  3.0%  6.9% 77.7%\n",
      "\u001b[1;36m[libx264 @ 0x55f53950d7c0] \u001b[0mmb I  I16..4:  9.5% 24.0% 66.6%\n",
      "\u001b[1;36m[libx264 @ 0x55f53950d7c0] \u001b[0mmb P  I16..4:  1.9% 11.6% 37.2%  P16..4: 11.8% 11.9%  8.1%  0.0%  0.0%    skip:17.5%\n",
      "\u001b[1;36m[libx264 @ 0x55f53950d7c0] \u001b[0mmb B  I16..4:  1.4%  4.3% 22.3%  B16..8: 25.7% 15.7%  8.4%  direct: 5.2%  skip:17.0%  L0:49.1% L1:43.1% BI: 7.8%\n",
      "\u001b[1;36m[libx264 @ 0x55f53950d7c0] \u001b[0m8x8 transform intra:19.4% inter:17.4%\n",
      "\u001b[1;36m[libx264 @ 0x55f53950d7c0] \u001b[0mcoded y,uvDC,uvAC intra: 59.9% 55.9% 43.5% inter: 30.6% 13.1% 0.7%\n",
      "\u001b[1;36m[libx264 @ 0x55f53950d7c0] \u001b[0mi16 v,h,dc,p: 43% 37% 17%  4%\n",
      "\u001b[1;36m[libx264 @ 0x55f53950d7c0] \u001b[0mi8 v,h,dc,ddl,ddr,vr,hd,vl,hu: 30% 13% 45%  2%  2%  2%  3%  1%  2%\n",
      "\u001b[1;36m[libx264 @ 0x55f53950d7c0] \u001b[0mi4 v,h,dc,ddl,ddr,vr,hd,vl,hu: 30% 20% 27%  4%  3%  4%  5%  3%  5%\n",
      "\u001b[1;36m[libx264 @ 0x55f53950d7c0] \u001b[0mi8c dc,h,v,p: 69% 17% 12%  2%\n",
      "\u001b[1;36m[libx264 @ 0x55f53950d7c0] \u001b[0mWeighted P-Frames: Y:8.1% UV:2.5%\n",
      "\u001b[1;36m[libx264 @ 0x55f53950d7c0] \u001b[0mref P L0: 43.2%  6.9% 27.5% 20.8%  1.6%\n",
      "\u001b[1;36m[libx264 @ 0x55f53950d7c0] \u001b[0mref B L0: 66.5% 25.2%  8.3%\n",
      "\u001b[1;36m[libx264 @ 0x55f53950d7c0] \u001b[0mref B L1: 84.5% 15.5%\n",
      "\u001b[1;36m[libx264 @ 0x55f53950d7c0] \u001b[0mkb/s:1802.53\n"
     ]
    }
   ],
   "source": [
    "K = 5\n",
    "T = 0.3\n",
    "alpha = 0.1\n",
    "os.mkdir(f'test_{K}_{T}_{alpha}')\n",
    "main(f'test_{K}_{T}_{alpha}')"
   ]
  },
  {
   "cell_type": "code",
   "execution_count": 10,
   "id": "5201168b",
   "metadata": {},
   "outputs": [
    {
     "name": "stderr",
     "output_type": "stream",
     "text": [
      "  0%|                                                                                                                | 0/1000 [00:00<?, ?it/s]/tmp/ipykernel_55814/1958088092.py:16: RuntimeWarning: invalid value encountered in sqrt\n",
      "  return 1/(np.sqrt(2*np.pi*(var+eps))) * np.exp(-mahalD/2)\n",
      "/tmp/ipykernel_55814/1958088092.py:16: RuntimeWarning: overflow encountered in exp\n",
      "  return 1/(np.sqrt(2*np.pi*(var+eps))) * np.exp(-mahalD/2)\n",
      "/tmp/ipykernel_55814/1958088092.py:60: RuntimeWarning: invalid value encountered in sqrt\n",
      "  pi_by_var = -1*params['pi']/np.sqrt(params['var'] + eps)\n",
      "100%|███████████████████████████████████████████████████████████████████████████████████████████████████▉| 999/1000 [1:02:59<00:03,  3.78s/it]\n"
     ]
    },
    {
     "name": "stdout",
     "output_type": "stream",
     "text": [
      "ffmpeg version 4.2.7-0ubuntu0.1 Copyright (c) 2000-2022 the FFmpeg developers\n",
      "  built with gcc 9 (Ubuntu 9.4.0-1ubuntu1~20.04.1)\n",
      "  configuration: --prefix=/usr --extra-version=0ubuntu0.1 --toolchain=hardened --libdir=/usr/lib/x86_64-linux-gnu --incdir=/usr/include/x86_64-linux-gnu --arch=amd64 --enable-gpl --disable-stripping --enable-avresample --disable-filter=resample --enable-avisynth --enable-gnutls --enable-ladspa --enable-libaom --enable-libass --enable-libbluray --enable-libbs2b --enable-libcaca --enable-libcdio --enable-libcodec2 --enable-libflite --enable-libfontconfig --enable-libfreetype --enable-libfribidi --enable-libgme --enable-libgsm --enable-libjack --enable-libmp3lame --enable-libmysofa --enable-libopenjpeg --enable-libopenmpt --enable-libopus --enable-libpulse --enable-librsvg --enable-librubberband --enable-libshine --enable-libsnappy --enable-libsoxr --enable-libspeex --enable-libssh --enable-libtheora --enable-libtwolame --enable-libvidstab --enable-libvorbis --enable-libvpx --enable-libwavpack --enable-libwebp --enable-libx265 --enable-libxml2 --enable-libxvid --enable-libzmq --enable-libzvbi --enable-lv2 --enable-omx --enable-openal --enable-opencl --enable-opengl --enable-sdl2 --enable-libdc1394 --enable-libdrm --enable-libiec61883 --enable-nvenc --enable-chromaprint --enable-frei0r --enable-libx264 --enable-shared\n",
      "  libavutil      56. 31.100 / 56. 31.100\n",
      "  libavcodec     58. 54.100 / 58. 54.100\n",
      "  libavformat    58. 29.100 / 58. 29.100\n",
      "  libavdevice    58.  8.100 / 58.  8.100\n",
      "  libavfilter     7. 57.100 /  7. 57.100\n",
      "  libavresample   4.  0.  0 /  4.  0.  0\n",
      "  libswscale      5.  5.100 /  5.  5.100\n",
      "  libswresample   3.  5.100 /  3.  5.100\n",
      "  libpostproc    55.  5.100 / 55.  5.100\n",
      "Input #0, image2, from 'test_5_0.3_0.01/background/background_%03d.png':\n",
      "  Duration: 00:00:33.30, start: 0.000000, bitrate: N/A\n",
      "    Stream #0:0: Video: png, rgb24(pc), 352x240, 30 fps, 30 tbr, 30 tbn, 30 tbc\n",
      "Stream mapping:\n",
      "  Stream #0:0 -> #0:0 (png (native) -> h264 (libx264))\n",
      "Press [q] to stop, [?] for help\n",
      "\u001b[1;36m[libx264 @ 0x560309dfaa40] \u001b[0musing cpu capabilities: MMX2 SSE2Fast SSSE3 SSE4.2 AVX FMA3 BMI2 AVX2\n",
      "\u001b[1;36m[libx264 @ 0x560309dfaa40] \u001b[0mprofile High, level 1.3\n",
      "\u001b[1;36m[libx264 @ 0x560309dfaa40] \u001b[0m264 - core 155 r2917 0a84d98 - H.264/MPEG-4 AVC codec - Copyleft 2003-2018 - http://www.videolan.org/x264.html - options: cabac=1 ref=3 deblock=1:0:0 analyse=0x3:0x113 me=hex subme=7 psy=1 psy_rd=1.00:0.00 mixed_ref=1 me_range=16 chroma_me=1 trellis=1 8x8dct=1 cqm=0 deadzone=21,11 fast_pskip=1 chroma_qp_offset=-2 threads=6 lookahead_threads=1 sliced_threads=0 nr=0 decimate=1 interlaced=0 bluray_compat=0 constrained_intra=0 bframes=3 b_pyramid=2 b_adapt=1 b_bias=0 direct=1 weightb=1 open_gop=0 weightp=2 keyint=250 keyint_min=25 scenecut=40 intra_refresh=0 rc_lookahead=40 rc=crf mbtree=1 crf=20.0 qcomp=0.60 qpmin=0 qpmax=69 qpstep=4 ip_ratio=1.40 aq=1:1.00\n",
      "Output #0, mp4, to 'test_5_0.3_0.01/background.mp4':\n",
      "  Metadata:\n",
      "    encoder         : Lavf58.29.100\n",
      "    Stream #0:0: Video: h264 (libx264) (avc1 / 0x31637661), yuv420p, 352x240, q=-1--1, 30 fps, 15360 tbn, 30 tbc\n",
      "    Metadata:\n",
      "      encoder         : Lavc58.54.100 libx264\n",
      "    Side data:\n",
      "      cpb: bitrate max/min/avg: 0/0/0 buffer size: 0 vbv_delay: -1\n",
      "frame=  999 fps=130 q=-1.0 Lsize=    7462kB time=00:00:33.20 bitrate=1841.1kbits/s speed=4.33x    \n",
      "video:7449kB audio:0kB subtitle:0kB other streams:0kB global headers:0kB muxing overhead: 0.164064%\n",
      "\u001b[1;36m[libx264 @ 0x560309dfaa40] \u001b[0mframe I:15    Avg QP:21.80  size: 19352\n",
      "\u001b[1;36m[libx264 @ 0x560309dfaa40] \u001b[0mframe P:298   Avg QP:25.99  size:  8539\n",
      "\u001b[1;36m[libx264 @ 0x560309dfaa40] \u001b[0mframe B:686   Avg QP:28.23  size:  6986\n",
      "\u001b[1;36m[libx264 @ 0x560309dfaa40] \u001b[0mconsecutive B-frames:  6.6%  3.2%  6.9% 83.3%\n",
      "\u001b[1;36m[libx264 @ 0x560309dfaa40] \u001b[0mmb I  I16..4: 13.2% 21.8% 65.0%\n",
      "\u001b[1;36m[libx264 @ 0x560309dfaa40] \u001b[0mmb P  I16..4:  2.3%  3.2% 16.8%  P16..4: 28.9% 19.5% 20.4%  0.0%  0.0%    skip: 8.8%\n",
      "\u001b[1;36m[libx264 @ 0x560309dfaa40] \u001b[0mmb B  I16..4:  0.3%  0.6% 12.8%  B16..8: 28.9% 17.3% 13.4%  direct: 9.8%  skip:16.8%  L0:50.7% L1:43.1% BI: 6.2%\n",
      "\u001b[1;36m[libx264 @ 0x560309dfaa40] \u001b[0m8x8 transform intra:9.7% inter:19.9%\n",
      "\u001b[1;36m[libx264 @ 0x560309dfaa40] \u001b[0mcoded y,uvDC,uvAC intra: 82.0% 82.7% 64.7% inter: 35.6% 28.2% 3.7%\n",
      "\u001b[1;36m[libx264 @ 0x560309dfaa40] \u001b[0mi16 v,h,dc,p: 76%  7% 13%  3%\n",
      "\u001b[1;36m[libx264 @ 0x560309dfaa40] \u001b[0mi8 v,h,dc,ddl,ddr,vr,hd,vl,hu: 11% 15% 33%  6%  7%  5% 10%  5%  8%\n",
      "\u001b[1;36m[libx264 @ 0x560309dfaa40] \u001b[0mi4 v,h,dc,ddl,ddr,vr,hd,vl,hu: 20% 19% 25%  6%  5%  5%  8%  5%  7%\n",
      "\u001b[1;36m[libx264 @ 0x560309dfaa40] \u001b[0mi8c dc,h,v,p: 57% 20% 18%  4%\n",
      "\u001b[1;36m[libx264 @ 0x560309dfaa40] \u001b[0mWeighted P-Frames: Y:0.3% UV:0.3%\n",
      "\u001b[1;36m[libx264 @ 0x560309dfaa40] \u001b[0mref P L0: 39.9%  8.3% 29.5% 22.2%  0.0%\n",
      "\u001b[1;36m[libx264 @ 0x560309dfaa40] \u001b[0mref B L0: 61.1% 29.1%  9.8%\n",
      "\u001b[1;36m[libx264 @ 0x560309dfaa40] \u001b[0mref B L1: 82.6% 17.4%\n",
      "\u001b[1;36m[libx264 @ 0x560309dfaa40] \u001b[0mkb/s:1832.41\n",
      "ffmpeg version 4.2.7-0ubuntu0.1 Copyright (c) 2000-2022 the FFmpeg developers\n",
      "  built with gcc 9 (Ubuntu 9.4.0-1ubuntu1~20.04.1)\n",
      "  configuration: --prefix=/usr --extra-version=0ubuntu0.1 --toolchain=hardened --libdir=/usr/lib/x86_64-linux-gnu --incdir=/usr/include/x86_64-linux-gnu --arch=amd64 --enable-gpl --disable-stripping --enable-avresample --disable-filter=resample --enable-avisynth --enable-gnutls --enable-ladspa --enable-libaom --enable-libass --enable-libbluray --enable-libbs2b --enable-libcaca --enable-libcdio --enable-libcodec2 --enable-libflite --enable-libfontconfig --enable-libfreetype --enable-libfribidi --enable-libgme --enable-libgsm --enable-libjack --enable-libmp3lame --enable-libmysofa --enable-libopenjpeg --enable-libopenmpt --enable-libopus --enable-libpulse --enable-librsvg --enable-librubberband --enable-libshine --enable-libsnappy --enable-libsoxr --enable-libspeex --enable-libssh --enable-libtheora --enable-libtwolame --enable-libvidstab --enable-libvorbis --enable-libvpx --enable-libwavpack --enable-libwebp --enable-libx265 --enable-libxml2 --enable-libxvid --enable-libzmq --enable-libzvbi --enable-lv2 --enable-omx --enable-openal --enable-opencl --enable-opengl --enable-sdl2 --enable-libdc1394 --enable-libdrm --enable-libiec61883 --enable-nvenc --enable-chromaprint --enable-frei0r --enable-libx264 --enable-shared\n",
      "  libavutil      56. 31.100 / 56. 31.100\n",
      "  libavcodec     58. 54.100 / 58. 54.100\n",
      "  libavformat    58. 29.100 / 58. 29.100\n",
      "  libavdevice    58.  8.100 / 58.  8.100\n",
      "  libavfilter     7. 57.100 /  7. 57.100\n",
      "  libavresample   4.  0.  0 /  4.  0.  0\n",
      "  libswscale      5.  5.100 /  5.  5.100\n",
      "  libswresample   3.  5.100 /  3.  5.100\n",
      "  libpostproc    55.  5.100 / 55.  5.100\n",
      "Input #0, image2, from 'test_5_0.3_0.01/foreground/foreground_%03d.png':\n",
      "  Duration: 00:00:33.30, start: 0.000000, bitrate: N/A\n",
      "    Stream #0:0: Video: png, rgb24(pc), 352x240, 30 fps, 30 tbr, 30 tbn, 30 tbc\n",
      "Stream mapping:\n",
      "  Stream #0:0 -> #0:0 (png (native) -> h264 (libx264))\n",
      "Press [q] to stop, [?] for help\n",
      "\u001b[1;36m[libx264 @ 0x56099be45780] \u001b[0musing cpu capabilities: MMX2 SSE2Fast SSSE3 SSE4.2 AVX FMA3 BMI2 AVX2\n",
      "\u001b[1;36m[libx264 @ 0x56099be45780] \u001b[0mprofile High, level 1.3\n",
      "\u001b[1;36m[libx264 @ 0x56099be45780] \u001b[0m264 - core 155 r2917 0a84d98 - H.264/MPEG-4 AVC codec - Copyleft 2003-2018 - http://www.videolan.org/x264.html - options: cabac=1 ref=3 deblock=1:0:0 analyse=0x3:0x113 me=hex subme=7 psy=1 psy_rd=1.00:0.00 mixed_ref=1 me_range=16 chroma_me=1 trellis=1 8x8dct=1 cqm=0 deadzone=21,11 fast_pskip=1 chroma_qp_offset=-2 threads=6 lookahead_threads=1 sliced_threads=0 nr=0 decimate=1 interlaced=0 bluray_compat=0 constrained_intra=0 bframes=3 b_pyramid=2 b_adapt=1 b_bias=0 direct=1 weightb=1 open_gop=0 weightp=2 keyint=250 keyint_min=25 scenecut=40 intra_refresh=0 rc_lookahead=40 rc=crf mbtree=1 crf=20.0 qcomp=0.60 qpmin=0 qpmax=69 qpstep=4 ip_ratio=1.40 aq=1:1.00\n",
      "Output #0, mp4, to 'test_5_0.3_0.01/foreground.mp4':\n",
      "  Metadata:\n",
      "    encoder         : Lavf58.29.100\n",
      "    Stream #0:0: Video: h264 (libx264) (avc1 / 0x31637661), yuv420p, 352x240, q=-1--1, 30 fps, 15360 tbn, 30 tbc\n",
      "    Metadata:\n",
      "      encoder         : Lavc58.54.100 libx264\n",
      "    Side data:\n",
      "      cpb: bitrate max/min/avg: 0/0/0 buffer size: 0 vbv_delay: -1\n"
     ]
    },
    {
     "name": "stdout",
     "output_type": "stream",
     "text": [
      "frame=  999 fps=142 q=-1.0 Lsize=    7432kB time=00:00:33.20 bitrate=1833.9kbits/s speed=4.71x    \n",
      "video:7420kB audio:0kB subtitle:0kB other streams:0kB global headers:0kB muxing overhead: 0.162815%\n",
      "\u001b[1;36m[libx264 @ 0x56099be45780] \u001b[0mframe I:36    Avg QP:23.33  size: 13336\n",
      "\u001b[1;36m[libx264 @ 0x56099be45780] \u001b[0mframe P:315   Avg QP:27.32  size:  8326\n",
      "\u001b[1;36m[libx264 @ 0x56099be45780] \u001b[0mframe B:648   Avg QP:28.17  size:  6936\n",
      "\u001b[1;36m[libx264 @ 0x56099be45780] \u001b[0mconsecutive B-frames: 11.7%  3.6%  5.4% 79.3%\n",
      "\u001b[1;36m[libx264 @ 0x56099be45780] \u001b[0mmb I  I16..4: 10.9% 22.0% 67.1%\n",
      "\u001b[1;36m[libx264 @ 0x56099be45780] \u001b[0mmb P  I16..4:  1.8% 11.2% 36.8%  P16..4: 12.1% 12.2%  8.4%  0.0%  0.0%    skip:17.4%\n",
      "\u001b[1;36m[libx264 @ 0x56099be45780] \u001b[0mmb B  I16..4:  1.4%  4.5% 22.8%  B16..8: 25.4% 15.6%  8.4%  direct: 5.1%  skip:17.0%  L0:48.9% L1:43.2% BI: 7.9%\n",
      "\u001b[1;36m[libx264 @ 0x56099be45780] \u001b[0m8x8 transform intra:19.1% inter:17.0%\n",
      "\u001b[1;36m[libx264 @ 0x56099be45780] \u001b[0mcoded y,uvDC,uvAC intra: 60.6% 56.8% 44.4% inter: 30.7% 13.3% 0.7%\n",
      "\u001b[1;36m[libx264 @ 0x56099be45780] \u001b[0mi16 v,h,dc,p: 45% 35% 16%  4%\n",
      "\u001b[1;36m[libx264 @ 0x56099be45780] \u001b[0mi8 v,h,dc,ddl,ddr,vr,hd,vl,hu: 30% 13% 45%  2%  2%  2%  3%  1%  2%\n",
      "\u001b[1;36m[libx264 @ 0x56099be45780] \u001b[0mi4 v,h,dc,ddl,ddr,vr,hd,vl,hu: 29% 20% 26%  4%  3%  4%  5%  4%  5%\n",
      "\u001b[1;36m[libx264 @ 0x56099be45780] \u001b[0mi8c dc,h,v,p: 68% 17% 13%  2%\n",
      "\u001b[1;36m[libx264 @ 0x56099be45780] \u001b[0mWeighted P-Frames: Y:4.4% UV:0.3%\n",
      "\u001b[1;36m[libx264 @ 0x56099be45780] \u001b[0mref P L0: 43.2%  7.1% 28.3% 20.5%  0.9%\n",
      "\u001b[1;36m[libx264 @ 0x56099be45780] \u001b[0mref B L0: 66.7% 25.0%  8.3%\n",
      "\u001b[1;36m[libx264 @ 0x56099be45780] \u001b[0mref B L1: 84.7% 15.3%\n",
      "\u001b[1;36m[libx264 @ 0x56099be45780] \u001b[0mkb/s:1825.23\n"
     ]
    }
   ],
   "source": [
    "K = 5\n",
    "T = 0.3\n",
    "alpha = 0.01\n",
    "os.mkdir(f'test_{K}_{T}_{alpha}')\n",
    "main(f'test_{K}_{T}_{alpha}')"
   ]
  },
  {
   "cell_type": "code",
   "execution_count": 11,
   "id": "f782cd3b",
   "metadata": {},
   "outputs": [
    {
     "name": "stderr",
     "output_type": "stream",
     "text": [
      "  0%|                                                                                                                | 0/1000 [00:00<?, ?it/s]/tmp/ipykernel_55814/1958088092.py:16: RuntimeWarning: invalid value encountered in sqrt\n",
      "  return 1/(np.sqrt(2*np.pi*(var+eps))) * np.exp(-mahalD/2)\n",
      "/tmp/ipykernel_55814/1958088092.py:16: RuntimeWarning: overflow encountered in exp\n",
      "  return 1/(np.sqrt(2*np.pi*(var+eps))) * np.exp(-mahalD/2)\n",
      "/tmp/ipykernel_55814/1958088092.py:60: RuntimeWarning: invalid value encountered in sqrt\n",
      "  pi_by_var = -1*params['pi']/np.sqrt(params['var'] + eps)\n",
      "100%|███████████████████████████████████████████████████████████████████████████████████████████████████▉| 999/1000 [1:03:26<00:03,  3.81s/it]\n"
     ]
    },
    {
     "name": "stdout",
     "output_type": "stream",
     "text": [
      "ffmpeg version 4.2.7-0ubuntu0.1 Copyright (c) 2000-2022 the FFmpeg developers\n",
      "  built with gcc 9 (Ubuntu 9.4.0-1ubuntu1~20.04.1)\n",
      "  configuration: --prefix=/usr --extra-version=0ubuntu0.1 --toolchain=hardened --libdir=/usr/lib/x86_64-linux-gnu --incdir=/usr/include/x86_64-linux-gnu --arch=amd64 --enable-gpl --disable-stripping --enable-avresample --disable-filter=resample --enable-avisynth --enable-gnutls --enable-ladspa --enable-libaom --enable-libass --enable-libbluray --enable-libbs2b --enable-libcaca --enable-libcdio --enable-libcodec2 --enable-libflite --enable-libfontconfig --enable-libfreetype --enable-libfribidi --enable-libgme --enable-libgsm --enable-libjack --enable-libmp3lame --enable-libmysofa --enable-libopenjpeg --enable-libopenmpt --enable-libopus --enable-libpulse --enable-librsvg --enable-librubberband --enable-libshine --enable-libsnappy --enable-libsoxr --enable-libspeex --enable-libssh --enable-libtheora --enable-libtwolame --enable-libvidstab --enable-libvorbis --enable-libvpx --enable-libwavpack --enable-libwebp --enable-libx265 --enable-libxml2 --enable-libxvid --enable-libzmq --enable-libzvbi --enable-lv2 --enable-omx --enable-openal --enable-opencl --enable-opengl --enable-sdl2 --enable-libdc1394 --enable-libdrm --enable-libiec61883 --enable-nvenc --enable-chromaprint --enable-frei0r --enable-libx264 --enable-shared\n",
      "  libavutil      56. 31.100 / 56. 31.100\n",
      "  libavcodec     58. 54.100 / 58. 54.100\n",
      "  libavformat    58. 29.100 / 58. 29.100\n",
      "  libavdevice    58.  8.100 / 58.  8.100\n",
      "  libavfilter     7. 57.100 /  7. 57.100\n",
      "  libavresample   4.  0.  0 /  4.  0.  0\n",
      "  libswscale      5.  5.100 /  5.  5.100\n",
      "  libswresample   3.  5.100 /  3.  5.100\n",
      "  libpostproc    55.  5.100 / 55.  5.100\n",
      "Input #0, image2, from 'test_4_0.4_0.01/background/background_%03d.png':\n",
      "  Duration: 00:00:33.30, start: 0.000000, bitrate: N/A\n",
      "    Stream #0:0: Video: png, rgb24(pc), 352x240, 30 fps, 30 tbr, 30 tbn, 30 tbc\n",
      "Stream mapping:\n",
      "  Stream #0:0 -> #0:0 (png (native) -> h264 (libx264))\n",
      "Press [q] to stop, [?] for help\n",
      "\u001b[1;36m[libx264 @ 0x55c7e9f78a40] \u001b[0musing cpu capabilities: MMX2 SSE2Fast SSSE3 SSE4.2 AVX FMA3 BMI2 AVX2\n",
      "\u001b[1;36m[libx264 @ 0x55c7e9f78a40] \u001b[0mprofile High, level 1.3\n",
      "\u001b[1;36m[libx264 @ 0x55c7e9f78a40] \u001b[0m264 - core 155 r2917 0a84d98 - H.264/MPEG-4 AVC codec - Copyleft 2003-2018 - http://www.videolan.org/x264.html - options: cabac=1 ref=3 deblock=1:0:0 analyse=0x3:0x113 me=hex subme=7 psy=1 psy_rd=1.00:0.00 mixed_ref=1 me_range=16 chroma_me=1 trellis=1 8x8dct=1 cqm=0 deadzone=21,11 fast_pskip=1 chroma_qp_offset=-2 threads=6 lookahead_threads=1 sliced_threads=0 nr=0 decimate=1 interlaced=0 bluray_compat=0 constrained_intra=0 bframes=3 b_pyramid=2 b_adapt=1 b_bias=0 direct=1 weightb=1 open_gop=0 weightp=2 keyint=250 keyint_min=25 scenecut=40 intra_refresh=0 rc_lookahead=40 rc=crf mbtree=1 crf=20.0 qcomp=0.60 qpmin=0 qpmax=69 qpstep=4 ip_ratio=1.40 aq=1:1.00\n",
      "Output #0, mp4, to 'test_4_0.4_0.01/background.mp4':\n",
      "  Metadata:\n",
      "    encoder         : Lavf58.29.100\n",
      "    Stream #0:0: Video: h264 (libx264) (avc1 / 0x31637661), yuv420p, 352x240, q=-1--1, 30 fps, 15360 tbn, 30 tbc\n",
      "    Metadata:\n",
      "      encoder         : Lavc58.54.100 libx264\n",
      "    Side data:\n",
      "      cpb: bitrate max/min/avg: 0/0/0 buffer size: 0 vbv_delay: -1\n",
      "frame=  999 fps=159 q=-1.0 Lsize=    3361kB time=00:00:33.20 bitrate= 829.4kbits/s speed=5.28x    \n",
      "video:3349kB audio:0kB subtitle:0kB other streams:0kB global headers:0kB muxing overhead: 0.370304%\n",
      "\u001b[1;36m[libx264 @ 0x55c7e9f78a40] \u001b[0mframe I:6     Avg QP:21.33  size: 19090\n",
      "\u001b[1;36m[libx264 @ 0x55c7e9f78a40] \u001b[0mframe P:266   Avg QP:23.01  size:  4899\n",
      "\u001b[1;36m[libx264 @ 0x55c7e9f78a40] \u001b[0mframe B:727   Avg QP:26.89  size:  2766\n",
      "\u001b[1;36m[libx264 @ 0x55c7e9f78a40] \u001b[0mconsecutive B-frames:  1.6%  2.0%  6.3% 90.1%\n",
      "\u001b[1;36m[libx264 @ 0x55c7e9f78a40] \u001b[0mmb I  I16..4: 13.0% 29.0% 58.0%\n",
      "\u001b[1;36m[libx264 @ 0x55c7e9f78a40] \u001b[0mmb P  I16..4:  1.1%  1.8%  3.6%  P16..4: 42.2% 18.4% 20.2%  0.0%  0.0%    skip:12.6%\n",
      "\u001b[1;36m[libx264 @ 0x55c7e9f78a40] \u001b[0mmb B  I16..4:  0.1%  0.3%  2.6%  B16..8: 33.0% 11.1%  6.3%  direct: 9.0%  skip:37.6%  L0:48.7% L1:45.6% BI: 5.7%\n",
      "\u001b[1;36m[libx264 @ 0x55c7e9f78a40] \u001b[0m8x8 transform intra:19.2% inter:33.7%\n",
      "\u001b[1;36m[libx264 @ 0x55c7e9f78a40] \u001b[0mcoded y,uvDC,uvAC intra: 77.3% 78.9% 60.0% inter: 22.5% 31.2% 6.1%\n",
      "\u001b[1;36m[libx264 @ 0x55c7e9f78a40] \u001b[0mi16 v,h,dc,p: 81%  6%  8%  5%\n",
      "\u001b[1;36m[libx264 @ 0x55c7e9f78a40] \u001b[0mi8 v,h,dc,ddl,ddr,vr,hd,vl,hu:  8% 14% 36%  7%  7%  5% 10%  5%  9%\n",
      "\u001b[1;36m[libx264 @ 0x55c7e9f78a40] \u001b[0mi4 v,h,dc,ddl,ddr,vr,hd,vl,hu: 18% 19% 25%  6%  5%  5%  8%  5%  8%\n",
      "\u001b[1;36m[libx264 @ 0x55c7e9f78a40] \u001b[0mi8c dc,h,v,p: 57% 20% 18%  5%\n",
      "\u001b[1;36m[libx264 @ 0x55c7e9f78a40] \u001b[0mWeighted P-Frames: Y:0.0% UV:0.0%\n",
      "\u001b[1;36m[libx264 @ 0x55c7e9f78a40] \u001b[0mref P L0: 42.1%  6.9% 34.3% 16.7%\n",
      "\u001b[1;36m[libx264 @ 0x55c7e9f78a40] \u001b[0mref B L0: 63.8% 27.8%  8.4%\n",
      "\u001b[1;36m[libx264 @ 0x55c7e9f78a40] \u001b[0mref B L1: 82.9% 17.1%\n",
      "\u001b[1;36m[libx264 @ 0x55c7e9f78a40] \u001b[0mkb/s:823.70\n",
      "ffmpeg version 4.2.7-0ubuntu0.1 Copyright (c) 2000-2022 the FFmpeg developers\n",
      "  built with gcc 9 (Ubuntu 9.4.0-1ubuntu1~20.04.1)\n",
      "  configuration: --prefix=/usr --extra-version=0ubuntu0.1 --toolchain=hardened --libdir=/usr/lib/x86_64-linux-gnu --incdir=/usr/include/x86_64-linux-gnu --arch=amd64 --enable-gpl --disable-stripping --enable-avresample --disable-filter=resample --enable-avisynth --enable-gnutls --enable-ladspa --enable-libaom --enable-libass --enable-libbluray --enable-libbs2b --enable-libcaca --enable-libcdio --enable-libcodec2 --enable-libflite --enable-libfontconfig --enable-libfreetype --enable-libfribidi --enable-libgme --enable-libgsm --enable-libjack --enable-libmp3lame --enable-libmysofa --enable-libopenjpeg --enable-libopenmpt --enable-libopus --enable-libpulse --enable-librsvg --enable-librubberband --enable-libshine --enable-libsnappy --enable-libsoxr --enable-libspeex --enable-libssh --enable-libtheora --enable-libtwolame --enable-libvidstab --enable-libvorbis --enable-libvpx --enable-libwavpack --enable-libwebp --enable-libx265 --enable-libxml2 --enable-libxvid --enable-libzmq --enable-libzvbi --enable-lv2 --enable-omx --enable-openal --enable-opencl --enable-opengl --enable-sdl2 --enable-libdc1394 --enable-libdrm --enable-libiec61883 --enable-nvenc --enable-chromaprint --enable-frei0r --enable-libx264 --enable-shared\n",
      "  libavutil      56. 31.100 / 56. 31.100\n",
      "  libavcodec     58. 54.100 / 58. 54.100\n",
      "  libavformat    58. 29.100 / 58. 29.100\n",
      "  libavdevice    58.  8.100 / 58.  8.100\n",
      "  libavfilter     7. 57.100 /  7. 57.100\n",
      "  libavresample   4.  0.  0 /  4.  0.  0\n",
      "  libswscale      5.  5.100 /  5.  5.100\n",
      "  libswresample   3.  5.100 /  3.  5.100\n",
      "  libpostproc    55.  5.100 / 55.  5.100\n",
      "Input #0, image2, from 'test_4_0.4_0.01/foreground/foreground_%03d.png':\n",
      "  Duration: 00:00:33.30, start: 0.000000, bitrate: N/A\n",
      "    Stream #0:0: Video: png, rgb24(pc), 352x240, 30 fps, 30 tbr, 30 tbn, 30 tbc\n",
      "Stream mapping:\n",
      "  Stream #0:0 -> #0:0 (png (native) -> h264 (libx264))\n",
      "Press [q] to stop, [?] for help\n",
      "\u001b[1;36m[libx264 @ 0x562baab70ec0] \u001b[0musing cpu capabilities: MMX2 SSE2Fast SSSE3 SSE4.2 AVX FMA3 BMI2 AVX2\n",
      "\u001b[1;36m[libx264 @ 0x562baab70ec0] \u001b[0mprofile High, level 1.3\n",
      "\u001b[1;36m[libx264 @ 0x562baab70ec0] \u001b[0m264 - core 155 r2917 0a84d98 - H.264/MPEG-4 AVC codec - Copyleft 2003-2018 - http://www.videolan.org/x264.html - options: cabac=1 ref=3 deblock=1:0:0 analyse=0x3:0x113 me=hex subme=7 psy=1 psy_rd=1.00:0.00 mixed_ref=1 me_range=16 chroma_me=1 trellis=1 8x8dct=1 cqm=0 deadzone=21,11 fast_pskip=1 chroma_qp_offset=-2 threads=6 lookahead_threads=1 sliced_threads=0 nr=0 decimate=1 interlaced=0 bluray_compat=0 constrained_intra=0 bframes=3 b_pyramid=2 b_adapt=1 b_bias=0 direct=1 weightb=1 open_gop=0 weightp=2 keyint=250 keyint_min=25 scenecut=40 intra_refresh=0 rc_lookahead=40 rc=crf mbtree=1 crf=20.0 qcomp=0.60 qpmin=0 qpmax=69 qpstep=4 ip_ratio=1.40 aq=1:1.00\n",
      "Output #0, mp4, to 'test_4_0.4_0.01/foreground.mp4':\n",
      "  Metadata:\n",
      "    encoder         : Lavf58.29.100\n",
      "    Stream #0:0: Video: h264 (libx264) (avc1 / 0x31637661), yuv420p, 352x240, q=-1--1, 30 fps, 15360 tbn, 30 tbc\n",
      "    Metadata:\n",
      "      encoder         : Lavc58.54.100 libx264\n",
      "    Side data:\n",
      "      cpb: bitrate max/min/avg: 0/0/0 buffer size: 0 vbv_delay: -1\n"
     ]
    },
    {
     "name": "stdout",
     "output_type": "stream",
     "text": [
      "frame=  999 fps=234 q=-1.0 Lsize=    3101kB time=00:00:33.20 bitrate= 765.2kbits/s speed=7.78x    \n",
      "video:3089kB audio:0kB subtitle:0kB other streams:0kB global headers:0kB muxing overhead: 0.389930%\n",
      "\u001b[1;36m[libx264 @ 0x562baab70ec0] \u001b[0mframe I:14    Avg QP:21.46  size:  8782\n",
      "\u001b[1;36m[libx264 @ 0x562baab70ec0] \u001b[0mframe P:330   Avg QP:25.91  size:  3929\n",
      "\u001b[1;36m[libx264 @ 0x562baab70ec0] \u001b[0mframe B:655   Avg QP:27.15  size:  2661\n",
      "\u001b[1;36m[libx264 @ 0x562baab70ec0] \u001b[0mconsecutive B-frames: 10.4%  4.8%  5.1% 79.7%\n",
      "\u001b[1;36m[libx264 @ 0x562baab70ec0] \u001b[0mmb I  I16..4: 17.6% 31.6% 50.8%\n",
      "\u001b[1;36m[libx264 @ 0x562baab70ec0] \u001b[0mmb P  I16..4:  1.8% 14.0% 15.9%  P16..4: 11.7% 10.6%  5.3%  0.0%  0.0%    skip:40.9%\n",
      "\u001b[1;36m[libx264 @ 0x562baab70ec0] \u001b[0mmb B  I16..4:  0.9%  2.8%  6.1%  B16..8: 27.6% 11.9%  4.2%  direct: 5.4%  skip:41.1%  L0:49.2% L1:43.4% BI: 7.3%\n",
      "\u001b[1;36m[libx264 @ 0x562baab70ec0] \u001b[0m8x8 transform intra:37.9% inter:15.9%\n",
      "\u001b[1;36m[libx264 @ 0x562baab70ec0] \u001b[0mcoded y,uvDC,uvAC intra: 42.2% 33.9% 25.0% inter: 15.8% 5.4% 0.5%\n",
      "\u001b[1;36m[libx264 @ 0x562baab70ec0] \u001b[0mi16 v,h,dc,p: 51% 35% 13%  2%\n",
      "\u001b[1;36m[libx264 @ 0x562baab70ec0] \u001b[0mi8 v,h,dc,ddl,ddr,vr,hd,vl,hu: 25%  9% 60%  1%  1%  1%  1%  1%  1%\n",
      "\u001b[1;36m[libx264 @ 0x562baab70ec0] \u001b[0mi4 v,h,dc,ddl,ddr,vr,hd,vl,hu: 26% 18% 36%  3%  3%  3%  4%  3%  4%\n",
      "\u001b[1;36m[libx264 @ 0x562baab70ec0] \u001b[0mi8c dc,h,v,p: 78% 12%  9%  1%\n",
      "\u001b[1;36m[libx264 @ 0x562baab70ec0] \u001b[0mWeighted P-Frames: Y:10.0% UV:0.9%\n",
      "\u001b[1;36m[libx264 @ 0x562baab70ec0] \u001b[0mref P L0: 46.0%  5.0% 27.7% 19.3%  2.0%\n",
      "\u001b[1;36m[libx264 @ 0x562baab70ec0] \u001b[0mref B L0: 67.0% 25.6%  7.4%\n",
      "\u001b[1;36m[libx264 @ 0x562baab70ec0] \u001b[0mref B L1: 87.5% 12.5%\n",
      "\u001b[1;36m[libx264 @ 0x562baab70ec0] \u001b[0mkb/s:759.81\n"
     ]
    }
   ],
   "source": [
    "K = 4\n",
    "T = 0.4\n",
    "alpha = 0.01\n",
    "os.mkdir(f'test_{K}_{T}_{alpha}')\n",
    "main(f'test_{K}_{T}_{alpha}')"
   ]
  },
  {
   "cell_type": "code",
   "execution_count": 12,
   "id": "7667f262",
   "metadata": {},
   "outputs": [
    {
     "name": "stderr",
     "output_type": "stream",
     "text": [
      "  0%|                                                                                                                | 0/1000 [00:00<?, ?it/s]/tmp/ipykernel_55814/1958088092.py:16: RuntimeWarning: invalid value encountered in sqrt\n",
      "  return 1/(np.sqrt(2*np.pi*(var+eps))) * np.exp(-mahalD/2)\n",
      "/tmp/ipykernel_55814/1958088092.py:16: RuntimeWarning: overflow encountered in exp\n",
      "  return 1/(np.sqrt(2*np.pi*(var+eps))) * np.exp(-mahalD/2)\n",
      "/tmp/ipykernel_55814/1958088092.py:60: RuntimeWarning: invalid value encountered in sqrt\n",
      "  pi_by_var = -1*params['pi']/np.sqrt(params['var'] + eps)\n",
      "100%|███████████████████████████████████████████████████████████████████████████████████████████████████▉| 999/1000 [1:02:28<00:03,  3.75s/it]\n"
     ]
    },
    {
     "name": "stdout",
     "output_type": "stream",
     "text": [
      "ffmpeg version 4.2.7-0ubuntu0.1 Copyright (c) 2000-2022 the FFmpeg developers\n",
      "  built with gcc 9 (Ubuntu 9.4.0-1ubuntu1~20.04.1)\n",
      "  configuration: --prefix=/usr --extra-version=0ubuntu0.1 --toolchain=hardened --libdir=/usr/lib/x86_64-linux-gnu --incdir=/usr/include/x86_64-linux-gnu --arch=amd64 --enable-gpl --disable-stripping --enable-avresample --disable-filter=resample --enable-avisynth --enable-gnutls --enable-ladspa --enable-libaom --enable-libass --enable-libbluray --enable-libbs2b --enable-libcaca --enable-libcdio --enable-libcodec2 --enable-libflite --enable-libfontconfig --enable-libfreetype --enable-libfribidi --enable-libgme --enable-libgsm --enable-libjack --enable-libmp3lame --enable-libmysofa --enable-libopenjpeg --enable-libopenmpt --enable-libopus --enable-libpulse --enable-librsvg --enable-librubberband --enable-libshine --enable-libsnappy --enable-libsoxr --enable-libspeex --enable-libssh --enable-libtheora --enable-libtwolame --enable-libvidstab --enable-libvorbis --enable-libvpx --enable-libwavpack --enable-libwebp --enable-libx265 --enable-libxml2 --enable-libxvid --enable-libzmq --enable-libzvbi --enable-lv2 --enable-omx --enable-openal --enable-opencl --enable-opengl --enable-sdl2 --enable-libdc1394 --enable-libdrm --enable-libiec61883 --enable-nvenc --enable-chromaprint --enable-frei0r --enable-libx264 --enable-shared\n",
      "  libavutil      56. 31.100 / 56. 31.100\n",
      "  libavcodec     58. 54.100 / 58. 54.100\n",
      "  libavformat    58. 29.100 / 58. 29.100\n",
      "  libavdevice    58.  8.100 / 58.  8.100\n",
      "  libavfilter     7. 57.100 /  7. 57.100\n",
      "  libavresample   4.  0.  0 /  4.  0.  0\n",
      "  libswscale      5.  5.100 /  5.  5.100\n",
      "  libswresample   3.  5.100 /  3.  5.100\n",
      "  libpostproc    55.  5.100 / 55.  5.100\n",
      "Input #0, image2, from 'test_5_0.2_0.05/background/background_%03d.png':\n",
      "  Duration: 00:00:33.30, start: 0.000000, bitrate: N/A\n",
      "    Stream #0:0: Video: png, rgb24(pc), 352x240, 30 fps, 30 tbr, 30 tbn, 30 tbc\n",
      "Stream mapping:\n",
      "  Stream #0:0 -> #0:0 (png (native) -> h264 (libx264))\n",
      "Press [q] to stop, [?] for help\n",
      "\u001b[1;36m[libx264 @ 0x5632ad493080] \u001b[0musing cpu capabilities: MMX2 SSE2Fast SSSE3 SSE4.2 AVX FMA3 BMI2 AVX2\n",
      "\u001b[1;36m[libx264 @ 0x5632ad493080] \u001b[0mprofile High, level 1.3\n",
      "\u001b[1;36m[libx264 @ 0x5632ad493080] \u001b[0m264 - core 155 r2917 0a84d98 - H.264/MPEG-4 AVC codec - Copyleft 2003-2018 - http://www.videolan.org/x264.html - options: cabac=1 ref=3 deblock=1:0:0 analyse=0x3:0x113 me=hex subme=7 psy=1 psy_rd=1.00:0.00 mixed_ref=1 me_range=16 chroma_me=1 trellis=1 8x8dct=1 cqm=0 deadzone=21,11 fast_pskip=1 chroma_qp_offset=-2 threads=6 lookahead_threads=1 sliced_threads=0 nr=0 decimate=1 interlaced=0 bluray_compat=0 constrained_intra=0 bframes=3 b_pyramid=2 b_adapt=1 b_bias=0 direct=1 weightb=1 open_gop=0 weightp=2 keyint=250 keyint_min=25 scenecut=40 intra_refresh=0 rc_lookahead=40 rc=crf mbtree=1 crf=20.0 qcomp=0.60 qpmin=0 qpmax=69 qpstep=4 ip_ratio=1.40 aq=1:1.00\n",
      "Output #0, mp4, to 'test_5_0.2_0.05/background.mp4':\n",
      "  Metadata:\n",
      "    encoder         : Lavf58.29.100\n",
      "    Stream #0:0: Video: h264 (libx264) (avc1 / 0x31637661), yuv420p, 352x240, q=-1--1, 30 fps, 15360 tbn, 30 tbc\n",
      "    Metadata:\n",
      "      encoder         : Lavc58.54.100 libx264\n",
      "    Side data:\n",
      "      cpb: bitrate max/min/avg: 0/0/0 buffer size: 0 vbv_delay: -1\n",
      "frame=  999 fps=108 q=-1.0 Lsize=    8531kB time=00:00:33.20 bitrate=2104.9kbits/s speed=3.59x    \n",
      "video:8518kB audio:0kB subtitle:0kB other streams:0kB global headers:0kB muxing overhead: 0.143840%\n",
      "\u001b[1;36m[libx264 @ 0x5632ad493080] \u001b[0mframe I:22    Avg QP:22.20  size: 19620\n",
      "\u001b[1;36m[libx264 @ 0x5632ad493080] \u001b[0mframe P:302   Avg QP:26.37  size:  9622\n",
      "\u001b[1;36m[libx264 @ 0x5632ad493080] \u001b[0mframe B:675   Avg QP:28.36  size:  7977\n",
      "\u001b[1;36m[libx264 @ 0x5632ad493080] \u001b[0mconsecutive B-frames:  7.6%  4.8%  6.3% 81.3%\n",
      "\u001b[1;36m[libx264 @ 0x5632ad493080] \u001b[0mmb I  I16..4: 13.9% 18.3% 67.8%\n",
      "\u001b[1;36m[libx264 @ 0x5632ad493080] \u001b[0mmb P  I16..4:  2.6%  3.3% 21.7%  P16..4: 25.5% 18.6% 20.2%  0.0%  0.0%    skip: 8.1%\n",
      "\u001b[1;36m[libx264 @ 0x5632ad493080] \u001b[0mmb B  I16..4:  0.3%  0.6% 16.1%  B16..8: 26.2% 17.3% 14.6%  direct: 9.7%  skip:15.2%  L0:51.0% L1:42.2% BI: 6.8%\n",
      "\u001b[1;36m[libx264 @ 0x5632ad493080] \u001b[0m8x8 transform intra:8.4% inter:18.8%\n",
      "\u001b[1;36m[libx264 @ 0x5632ad493080] \u001b[0mcoded y,uvDC,uvAC intra: 82.9% 83.9% 66.9% inter: 38.0% 27.7% 3.7%\n",
      "\u001b[1;36m[libx264 @ 0x5632ad493080] \u001b[0mi16 v,h,dc,p: 73%  8% 16%  4%\n",
      "\u001b[1;36m[libx264 @ 0x5632ad493080] \u001b[0mi8 v,h,dc,ddl,ddr,vr,hd,vl,hu: 11% 15% 32%  6%  7%  5% 11%  5%  8%\n",
      "\u001b[1;36m[libx264 @ 0x5632ad493080] \u001b[0mi4 v,h,dc,ddl,ddr,vr,hd,vl,hu: 20% 19% 24%  6%  5%  5%  8%  5%  8%\n",
      "\u001b[1;36m[libx264 @ 0x5632ad493080] \u001b[0mi8c dc,h,v,p: 57% 20% 18%  4%\n",
      "\u001b[1;36m[libx264 @ 0x5632ad493080] \u001b[0mWeighted P-Frames: Y:0.3% UV:0.3%\n",
      "\u001b[1;36m[libx264 @ 0x5632ad493080] \u001b[0mref P L0: 39.2%  8.5% 29.6% 22.7%  0.0%\n",
      "\u001b[1;36m[libx264 @ 0x5632ad493080] \u001b[0mref B L0: 61.4% 28.9%  9.7%\n",
      "\u001b[1;36m[libx264 @ 0x5632ad493080] \u001b[0mref B L1: 82.6% 17.4%\n",
      "\u001b[1;36m[libx264 @ 0x5632ad493080] \u001b[0mkb/s:2095.42\n",
      "ffmpeg version 4.2.7-0ubuntu0.1 Copyright (c) 2000-2022 the FFmpeg developers\n",
      "  built with gcc 9 (Ubuntu 9.4.0-1ubuntu1~20.04.1)\n",
      "  configuration: --prefix=/usr --extra-version=0ubuntu0.1 --toolchain=hardened --libdir=/usr/lib/x86_64-linux-gnu --incdir=/usr/include/x86_64-linux-gnu --arch=amd64 --enable-gpl --disable-stripping --enable-avresample --disable-filter=resample --enable-avisynth --enable-gnutls --enable-ladspa --enable-libaom --enable-libass --enable-libbluray --enable-libbs2b --enable-libcaca --enable-libcdio --enable-libcodec2 --enable-libflite --enable-libfontconfig --enable-libfreetype --enable-libfribidi --enable-libgme --enable-libgsm --enable-libjack --enable-libmp3lame --enable-libmysofa --enable-libopenjpeg --enable-libopenmpt --enable-libopus --enable-libpulse --enable-librsvg --enable-librubberband --enable-libshine --enable-libsnappy --enable-libsoxr --enable-libspeex --enable-libssh --enable-libtheora --enable-libtwolame --enable-libvidstab --enable-libvorbis --enable-libvpx --enable-libwavpack --enable-libwebp --enable-libx265 --enable-libxml2 --enable-libxvid --enable-libzmq --enable-libzvbi --enable-lv2 --enable-omx --enable-openal --enable-opencl --enable-opengl --enable-sdl2 --enable-libdc1394 --enable-libdrm --enable-libiec61883 --enable-nvenc --enable-chromaprint --enable-frei0r --enable-libx264 --enable-shared\n",
      "  libavutil      56. 31.100 / 56. 31.100\n",
      "  libavcodec     58. 54.100 / 58. 54.100\n",
      "  libavformat    58. 29.100 / 58. 29.100\n",
      "  libavdevice    58.  8.100 / 58.  8.100\n",
      "  libavfilter     7. 57.100 /  7. 57.100\n",
      "  libavresample   4.  0.  0 /  4.  0.  0\n",
      "  libswscale      5.  5.100 /  5.  5.100\n",
      "  libswresample   3.  5.100 /  3.  5.100\n",
      "  libpostproc    55.  5.100 / 55.  5.100\n",
      "Input #0, image2, from 'test_5_0.2_0.05/foreground/foreground_%03d.png':\n",
      "  Duration: 00:00:33.30, start: 0.000000, bitrate: N/A\n",
      "    Stream #0:0: Video: png, rgb24(pc), 352x240, 30 fps, 30 tbr, 30 tbn, 30 tbc\n",
      "Stream mapping:\n",
      "  Stream #0:0 -> #0:0 (png (native) -> h264 (libx264))\n",
      "Press [q] to stop, [?] for help\n",
      "\u001b[1;36m[libx264 @ 0x564076972f00] \u001b[0musing cpu capabilities: MMX2 SSE2Fast SSSE3 SSE4.2 AVX FMA3 BMI2 AVX2\n",
      "\u001b[1;36m[libx264 @ 0x564076972f00] \u001b[0mprofile High, level 1.3\n",
      "\u001b[1;36m[libx264 @ 0x564076972f00] \u001b[0m264 - core 155 r2917 0a84d98 - H.264/MPEG-4 AVC codec - Copyleft 2003-2018 - http://www.videolan.org/x264.html - options: cabac=1 ref=3 deblock=1:0:0 analyse=0x3:0x113 me=hex subme=7 psy=1 psy_rd=1.00:0.00 mixed_ref=1 me_range=16 chroma_me=1 trellis=1 8x8dct=1 cqm=0 deadzone=21,11 fast_pskip=1 chroma_qp_offset=-2 threads=6 lookahead_threads=1 sliced_threads=0 nr=0 decimate=1 interlaced=0 bluray_compat=0 constrained_intra=0 bframes=3 b_pyramid=2 b_adapt=1 b_bias=0 direct=1 weightb=1 open_gop=0 weightp=2 keyint=250 keyint_min=25 scenecut=40 intra_refresh=0 rc_lookahead=40 rc=crf mbtree=1 crf=20.0 qcomp=0.60 qpmin=0 qpmax=69 qpstep=4 ip_ratio=1.40 aq=1:1.00\n",
      "Output #0, mp4, to 'test_5_0.2_0.05/foreground.mp4':\n",
      "  Metadata:\n",
      "    encoder         : Lavf58.29.100\n",
      "    Stream #0:0: Video: h264 (libx264) (avc1 / 0x31637661), yuv420p, 352x240, q=-1--1, 30 fps, 15360 tbn, 30 tbc\n",
      "    Metadata:\n",
      "      encoder         : Lavc58.54.100 libx264\n",
      "    Side data:\n",
      "      cpb: bitrate max/min/avg: 0/0/0 buffer size: 0 vbv_delay: -1\n"
     ]
    },
    {
     "name": "stdout",
     "output_type": "stream",
     "text": [
      "frame=  999 fps=107 q=-1.0 Lsize=    8460kB time=00:00:33.20 bitrate=2087.4kbits/s speed=3.56x    \n",
      "video:8448kB audio:0kB subtitle:0kB other streams:0kB global headers:0kB muxing overhead: 0.138057%\n",
      "\u001b[1;36m[libx264 @ 0x564076972f00] \u001b[0mframe I:37    Avg QP:23.64  size: 13521\n",
      "\u001b[1;36m[libx264 @ 0x564076972f00] \u001b[0mframe P:356   Avg QP:27.65  size:  9561\n",
      "\u001b[1;36m[libx264 @ 0x564076972f00] \u001b[0mframe B:606   Avg QP:28.34  size:  7832\n",
      "\u001b[1;36m[libx264 @ 0x564076972f00] \u001b[0mconsecutive B-frames: 17.1%  4.2%  5.4% 73.3%\n",
      "\u001b[1;36m[libx264 @ 0x564076972f00] \u001b[0mmb I  I16..4:  9.0% 23.7% 67.3%\n",
      "\u001b[1;36m[libx264 @ 0x564076972f00] \u001b[0mmb P  I16..4:  1.7% 10.3% 41.1%  P16..4: 11.5% 11.9%  8.7%  0.0%  0.0%    skip:14.8%\n",
      "\u001b[1;36m[libx264 @ 0x564076972f00] \u001b[0mmb B  I16..4:  1.4%  3.8% 25.9%  B16..8: 23.6% 15.6%  9.2%  direct: 5.1%  skip:15.4%  L0:49.0% L1:42.6% BI: 8.4%\n",
      "\u001b[1;36m[libx264 @ 0x564076972f00] \u001b[0m8x8 transform intra:16.6% inter:17.3%\n",
      "\u001b[1;36m[libx264 @ 0x564076972f00] \u001b[0mcoded y,uvDC,uvAC intra: 65.0% 62.5% 48.9% inter: 33.1% 15.1% 0.8%\n",
      "\u001b[1;36m[libx264 @ 0x564076972f00] \u001b[0mi16 v,h,dc,p: 42% 35% 19%  5%\n",
      "\u001b[1;36m[libx264 @ 0x564076972f00] \u001b[0mi8 v,h,dc,ddl,ddr,vr,hd,vl,hu: 30% 13% 43%  2%  2%  2%  3%  2%  3%\n",
      "\u001b[1;36m[libx264 @ 0x564076972f00] \u001b[0mi4 v,h,dc,ddl,ddr,vr,hd,vl,hu: 29% 20% 25%  4%  4%  4%  5%  4%  5%\n",
      "\u001b[1;36m[libx264 @ 0x564076972f00] \u001b[0mi8c dc,h,v,p: 66% 18% 13%  2%\n",
      "\u001b[1;36m[libx264 @ 0x564076972f00] \u001b[0mWeighted P-Frames: Y:10.7% UV:4.2%\n",
      "\u001b[1;36m[libx264 @ 0x564076972f00] \u001b[0mref P L0: 42.0%  7.2% 27.8% 20.8%  2.2%\n",
      "\u001b[1;36m[libx264 @ 0x564076972f00] \u001b[0mref B L0: 66.3% 25.5%  8.2%\n",
      "\u001b[1;36m[libx264 @ 0x564076972f00] \u001b[0mref B L1: 84.5% 15.5%\n",
      "\u001b[1;36m[libx264 @ 0x564076972f00] \u001b[0mkb/s:2078.10\n"
     ]
    }
   ],
   "source": [
    "K = 5\n",
    "T = 0.2\n",
    "alpha = 0.05\n",
    "os.mkdir(f'test_{K}_{T}_{alpha}')\n",
    "main(f'test_{K}_{T}_{alpha}')"
   ]
  },
  {
   "cell_type": "code",
   "execution_count": null,
   "id": "bb4e46db",
   "metadata": {},
   "outputs": [],
   "source": []
  }
 ],
 "metadata": {
  "kernelspec": {
   "display_name": "Python 3 (ipykernel)",
   "language": "python",
   "name": "python3"
  },
  "language_info": {
   "codemirror_mode": {
    "name": "ipython",
    "version": 3
   },
   "file_extension": ".py",
   "mimetype": "text/x-python",
   "name": "python",
   "nbconvert_exporter": "python",
   "pygments_lexer": "ipython3",
   "version": "3.8.10"
  }
 },
 "nbformat": 4,
 "nbformat_minor": 5
}
